<?xml version="1.0" encoding="utf-8"?>
<!-- Generator: Adobe Illustrator 22.0.0, SVG Export Plug-In . SVG Version: 6.00 Build 0)  -->
<svg preserveAspectRatio="xMidYMid meet" version="1.1" id="Layer_1" xmlns="http://www.w3.org/2000/svg" xmlns:xlink="http://www.w3.org/1999/xlink" x="0px" y="0px"
	viewBox="10 0 404 286" style="enable-background:new 0 0 404 358;" xml:space="preserve">
<style type="text/css">
	.st0{fill:#FFFFFF;}
	.st1{fill:black;}
</style>
<g>
	<path class="st1" d="M200.8,276.2c0,0.5-0.4,0.8-0.8,0.8h-0.8l-0.2,5h0.6c0.5,0,0.8,0.4,0.8,0.8s-0.4,0.8-0.8,0.8h-0.7l-0.1,1.8
		h1.7l6.2-127.6c0-0.4-0.3-0.8-0.7-0.9c-0.8-0.1-1.5-0.4-2.1-0.7c-0.3,0.3-0.4,0.6-0.4,0.6c-0.2,0.4-0.7,0.6-1.1,0.4
		c-0.4-0.2-0.6-0.7-0.4-1.1c0,0,0.2-0.4,0.6-0.9c-0.4-0.3-0.6-0.6-0.8-0.8l-0.3-2.3c0,0,0,0,0,0.1c-0.2,0.4-0.7,0.5-1.1,0.3
		c-0.4-0.2-0.5-0.7-0.3-1.1c0-0.1,0.4-0.6,1.2-1.3l-0.2-1.2c0,0,0,0,0,0c-0.2,0.4-0.8,0.5-1.1,0.3c-0.4-0.2-0.5-0.7-0.3-1.1
		c0-0.1,0.4-0.6,1.1-1.2l-0.1-0.9c0.9-0.8,4.1-3.3,9.3-3.3c5.3,0,8.4,2.5,9.3,3.3l-0.1,0.9c0.8,0.6,1.1,1.1,1.2,1.2
		c0.2,0.4,0.1,0.9-0.3,1.1c-0.1,0.1-0.3,0.1-0.4,0.1c-0.3,0-0.5-0.1-0.7-0.4c0,0,0,0-0.1-0.1l-0.2,1.3c0.9,0.7,1.2,1.2,1.2,1.3
		c0.2,0.4,0.1,0.9-0.3,1.1c-0.1,0.1-0.3,0.1-0.4,0.1c-0.3,0-0.6-0.1-0.7-0.4c0,0,0-0.1-0.1-0.2l-0.4,2.5c-0.1,0.1-0.3,0.4-0.6,0.7
		c0.4,0.5,0.6,0.8,0.6,0.9c0.2,0.4,0,0.9-0.4,1.1c-0.1,0.1-0.2,0.1-0.3,0.1c-0.3,0-0.6-0.2-0.8-0.5c0,0-0.1-0.3-0.4-0.6
		c-0.6,0.4-1.4,0.7-2.2,0.7c-0.2,0-0.4,0.1-0.6,0.3c-0.2,0.2-0.2,0.4-0.2,0.6l5.3,127.6h1.7l-2.4-57.2h-0.9c-0.5,0-0.8-0.4-0.8-0.8
		s0.4-0.8,0.8-0.8h0.8l-2.8-68c2.8-0.5,4.6-3,4.7-3.1c0.1-0.1,0.1-0.2,0.1-0.3l1.5-9.2c0-0.2,0-0.5-0.2-0.7
		c-0.1-0.1-1.2-1.3-3.3-2.4c-0.1,0.4-0.2,0.7-0.2,0.8c-0.2,0.4-0.7,0.6-1.1,0.4c-0.4-0.2-0.6-0.7-0.4-1.1c0,0,0.1-0.4,0.1-0.8
		c-1.6-0.6-3.6-1-5.9-1c-2.4,0-4.3,0.4-5.9,1c0,0.5,0.1,0.8,0.1,0.9c0.2,0.4,0,0.9-0.5,1.1c-0.1,0-0.2,0.1-0.3,0.1
		c-0.3,0-0.6-0.2-0.8-0.5c0,0-0.1-0.3-0.2-0.8c-2.1,1.1-3.2,2.3-3.3,2.4c-0.2,0.2-0.2,0.4-0.2,0.7l1.4,9.1c0,0.1,0.1,0.2,0.1,0.3
		c0.1,0.1,1.6,2.4,4.7,3.2l-5.7,116.8h0.8C200.4,275.4,200.8,275.8,200.8,276.2z"/>
	<path class="st1" d="M209.7,154.1c3.6,0,5.3,1.5,6,2.3c0.5-0.3,1-0.7,1.3-1c-0.9-1.1-3.1-2.9-7.3-2.9c-4.3,0-6.4,1.8-7.3,2.9
		c0.3,0.3,0.8,0.7,1.4,1C204.4,155.5,206.1,154.1,209.7,154.1z"/>
	<path class="st1" d="M216.1,157c0.1,0.3,0.4,0.5,0.8,0.5c0.1,0,0.2,0,0.3-0.1c0.4-0.2,0.6-0.7,0.4-1.1c0,0-0.2-0.4-0.6-0.9
		c-0.3,0.3-0.8,0.7-1.3,1C215.9,156.7,216.1,156.9,216.1,157z"/>
	<path class="st1" d="M201.8,156.3c-0.2,0.4,0,0.9,0.4,1.1c0.4,0.2,0.9,0,1.1-0.4c0,0,0.1-0.3,0.4-0.6c-0.6-0.3-1-0.6-1.4-1
		C202,155.9,201.8,156.2,201.8,156.3z"/>
	<path class="st1" d="M209.7,149.5c5.6,0,7.8,2.1,8.4,2.8l0.3-2c-1.4-1.1-4-2.4-8.7-2.4c-4.7,0-7.4,1.4-8.7,2.5l0.3,2
		C201.6,152,203.6,149.5,209.7,149.5z"/>
	<path class="st1" d="M199.8,151.6c-0.2,0.4-0.1,0.9,0.3,1.1c0.4,0.2,0.9,0.1,1.1-0.3c0,0,0,0,0-0.1l-0.3-2
		C200.2,151,199.9,151.5,199.8,151.6z"/>
	<path class="st1" d="M218.2,152.4c0.2,0.3,0.4,0.4,0.7,0.4c0.1,0,0.3,0,0.4-0.1c0.4-0.2,0.5-0.7,0.3-1.1c0-0.1-0.4-0.6-1.2-1.3
		l-0.3,2C218.1,152.3,218.2,152.4,218.2,152.4z"/>
	<path class="st1" d="M209.7,146.1c6.1,0,8.4,2.3,8.9,2.8l0.3-2c-1.4-1.1-4.2-2.5-9.2-2.5c-5.1,0-7.8,1.5-9.2,2.6l0.3,2
		C200.9,148.9,202.9,146.1,209.7,146.1z"/>
	<path class="st1" d="M218.6,149.1c0.2,0.3,0.4,0.4,0.7,0.4c0.2,0,0.3,0,0.4-0.1c0.4-0.2,0.5-0.8,0.3-1.1c0-0.1-0.4-0.6-1.2-1.2
		l-0.3,2C218.6,149,218.6,149.1,218.6,149.1z"/>
	<path class="st1" d="M199.4,148.2c-0.2,0.4-0.1,0.9,0.3,1.1c0.4,0.2,0.9,0.1,1.1-0.3c0,0,0,0,0,0l-0.3-2
		C199.7,147.7,199.4,148.2,199.4,148.2z"/>
	<path class="st1" d="M212.4,139.5c-0.3-0.1-0.6-0.4-0.6-0.8v-1c-0.7-0.1-1.4-0.1-2.2-0.1c-0.8,0-1.5,0-2.2,0.1v1
		c0,0.4-0.3,0.7-0.6,0.8c0.7-0.1,1.7-0.2,2.8-0.2C210.8,139.3,211.7,139.4,212.4,139.5z"/>
	<path class="st1" d="M212.7,139.6C212.7,139.6,212.7,139.6,212.7,139.6c1.5,0.3,2.2,0.9,2.5,1.4c0.3,0.4,0.3,0.8,0.3,1.2
		c0.6,0.2,1.1,0.5,1.6,0.7c0.1-0.7,0.1-1.8-0.5-2.8c-0.6-0.9-1.7-1.6-3.1-2v0.6C213.5,139.2,213.2,139.6,212.7,139.6z"/>
	<path class="st1" d="M204.1,141c0.4-0.5,1.1-1.1,2.7-1.4c0,0-0.1,0-0.1,0c-0.5,0-0.8-0.4-0.8-0.8v-0.6c-1.4,0.4-2.5,1-3.1,2
		c-0.7,1-0.7,2.1-0.6,2.8c0.5-0.2,1-0.5,1.6-0.7C203.8,141.8,203.9,141.4,204.1,141z"/>
	<path class="st1" d="M203.1,144.1c0.1,0,0.2,0,0.3-0.1c0.4-0.2,0.6-0.7,0.5-1.1c0,0-0.1-0.4-0.1-0.9c-0.6,0.2-1.1,0.5-1.6,0.7
		c0.1,0.4,0.2,0.7,0.2,0.8C202.5,143.9,202.8,144.1,203.1,144.1z"/>
	<path class="st1" d="M215.5,143c-0.2,0.4,0,0.9,0.4,1.1c0.4,0.2,0.9,0,1.1-0.4c0,0,0.1-0.3,0.2-0.8c-0.5-0.2-1-0.5-1.6-0.7
		C215.6,142.6,215.5,143,215.5,143z"/>
	<path class="st1" d="M207.5,107.5l0.9-0.9c0.1-0.1,0.2-0.3,0.2-0.5l1-23.2l-0.8-18.1c0-0.5,0.3-0.8,0.8-0.9c-0.4,0-0.8,0.3-0.8,0.8
		l-1.8,41l-0.9,0.9c-0.2,0.2-0.2,0.4-0.2,0.6v30.9c0.5-0.1,1.1-0.2,1.7-0.3V107.5z"/>
	<path class="st1" d="M206.8,139.6C206.8,139.6,206.9,139.6,206.8,139.6C206.9,139.6,206.8,139.6,206.8,139.6z"/>
	<path class="st1" d="M209.7,63.9C209.7,63.9,209.7,63.9,209.7,63.9C209.7,63.9,209.7,63.9,209.7,63.9
		C209.7,63.9,209.7,63.9,209.7,63.9z"/>
	<path class="st1" d="M206.7,139.6c0,0,0.1,0,0.1,0c0,0,0.1,0,0.1,0c0.3-0.1,0.6-0.4,0.6-0.8v-1c-0.6,0.1-1.2,0.2-1.7,0.3v0.6
		C205.8,139.2,206.2,139.6,206.7,139.6z"/>
	<path class="st1" d="M210.5,64.7l-0.8,18.1l1,23.2c0,0.2,0.1,0.4,0.2,0.5l0.9,0.9v30.3c0.6,0.1,1.2,0.2,1.7,0.3v-30.9
		c0-0.2-0.1-0.4-0.2-0.6l-0.9-0.9L210.5,64.7c0-0.5-0.3-0.9-0.8-0.9C210.2,63.9,210.5,64.3,210.5,64.7z"/>
	<path class="st1" d="M209.7,63.9C209.7,63.9,209.7,63.9,209.7,63.9C209.7,63.9,209.7,63.9,209.7,63.9
		C209.7,63.9,209.7,63.9,209.7,63.9z"/>
	<path class="st1" d="M212.4,139.5c0.1,0,0.1,0,0.2,0C212.6,139.6,212.5,139.6,212.4,139.5z"/>
	<path class="st1" d="M211.9,138.8c0,0.4,0.2,0.7,0.6,0.8c0.1,0,0.1,0,0.2,0c0,0,0,0,0.1,0c0.5,0,0.8-0.4,0.8-0.8v-0.6
		c-0.5-0.1-1.1-0.2-1.7-0.3V138.8z"/>
	<path class="st1" d="M208.9,64.7l0.8,18.1l0.8-18.1c0-0.5-0.3-0.8-0.8-0.9c0,0,0,0,0,0c0,0,0,0,0,0
		C209.2,63.9,208.9,64.3,208.9,64.7z"/>
	<path class="st1" d="M208.2,172.8c-0.5,0-0.8,0.4-0.8,0.8v111.9h1.7V173.6C209,173.2,208.6,172.8,208.2,172.8z"/>
	<path class="st1" d="M73.1,261.3c-0.5,0-0.8-0.4-0.8-0.8v-0.4c-7.1,5-11,9.3-11.1,9.4c0,0.1-0.1,0.1-0.1,0.2v0.7
		c0.1,0.3,0.4,0.5,0.7,0.5h1.7v-0.8c0-0.5,0.4-0.8,0.8-0.8h-0.5c5.3-5.2,25.9-23.2,56.4-23.2s51.1,18,56.4,23.2h-1.1
		c0.5,0,0.8,0.4,0.8,0.8v0.8h2.2c0.3,0,0.6-0.2,0.8-0.5c0.1-0.3,0.1-0.6-0.1-0.9c-0.1-0.1-4.4-4.9-12.3-10.3h-2.7
		c-0.5,0-0.8-0.4-0.8-0.8s0.4-0.8,0.8-0.8h0.1c-10.2-6.5-25.3-13.2-44.1-13.2c-20.1,0-36,7.7-46.2,14.5v1.5
		C74,260.9,73.6,261.3,73.1,261.3z"/>
	<path class="st1" d="M165.8,270.1c0,0.5,0.4,0.8,0.8,0.8h8v-0.8c0-0.5,0.4-0.8,0.8-0.8h-8.8C166.2,269.2,165.8,269.6,165.8,270.1z"
		/>
	<path class="st1" d="M65.1,270.1v0.8h9.7c0.5,0,0.8-0.4,0.8-0.8c0-0.5-0.4-0.8-0.8-0.8H64.3C64.8,269.2,65.1,269.6,65.1,270.1z"/>
	<path class="st1" d="M78.4,267.6c0.2,0,0.4-0.1,0.5-0.2c0.2-0.1,16.6-14.4,41.8-14.4c25.2,0,41.6,14.3,41.8,14.4
		c0.3,0.3,0.9,0.3,1.2-0.1c0.3-0.3,0.3-0.9-0.1-1.2c-0.2-0.1-17.1-14.8-42.9-14.8S78,266,77.8,266.1c-0.3,0.3-0.4,0.8-0.1,1.2
		C77.9,267.5,78.2,267.6,78.4,267.6z"/>
	<path class="st1" d="M168,271.7H73.1c-0.5,0-0.8,0.4-0.8,0.8s0.4,0.8,0.8,0.8H168c0.5,0,0.8-0.4,0.8-0.8S168.5,271.7,168,271.7z"/>
	<rect x="63.5" y="270.9" class="st1" width="1.7" height="14.6"/>
	<path class="st1" d="M65.1,270.1c0-0.5-0.4-0.8-0.8-0.8c-0.5,0-0.8,0.4-0.8,0.8v0.8h1.7V270.1z"/>
	<rect x="174.6" y="270.9" class="st1" width="1.7" height="14.6"/>
	<path class="st1" d="M174.6,270.1v0.8h1.7v-0.8c0-0.5-0.4-0.8-0.8-0.8S174.6,269.6,174.6,270.1z"/>
	<path class="st1" d="M73.1,276.1c-0.5,0-0.8,0.4-0.8,0.8v8.6H74V277C74,276.5,73.6,276.1,73.1,276.1z"/>
	<path class="st1" d="M168,276.1c-0.5,0-0.8,0.4-0.8,0.8v8.6h1.7V277C168.9,276.5,168.5,276.1,168,276.1z"/>
	<path class="st1" d="M114,278.6c-0.5,0-0.8,0.4-0.8,0.8v6.1h1.7v-6.1C114.8,279,114.4,278.6,114,278.6z"/>
	<path class="st1" d="M129,278.6c-0.5,0-0.8,0.4-0.8,0.8v6.1h1.7v-6.1C129.8,279,129.5,278.6,129,278.6z"/>
	<path class="st1" d="M121.5,278.6c-0.5,0-0.8,0.4-0.8,0.8v6.1h1.7v-6.1C122.3,279,121.9,278.6,121.5,278.6z"/>
	<path class="st1" d="M189.1,276.2v0.8h1.9v-0.8c0-0.5,0.4-0.8,0.8-0.8h-3.6C188.7,275.4,189.1,275.8,189.1,276.2z"/>
	<path class="st1" d="M184.5,266.7v0.8h1.1v8.6c0,0.5,0.4,0.8,0.8,0.8h1v-0.8c0-0.5,0.4-0.8,0.8-0.8h-1v-8.6c0-0.5-0.4-0.8-0.8-0.8
		h-2.8C184.1,265.9,184.5,266.3,184.5,266.7z"/>
	<path class="st1" d="M196.2,276.2v0.8h2.9l0.1-1.7h-3.8C195.8,275.4,196.2,275.8,196.2,276.2z"/>
	<path class="st1" d="M192.6,276.2v0.8h1.9v-0.8c0-0.5,0.4-0.8,0.8-0.8h-3.6C192.3,275.4,192.6,275.8,192.6,276.2z"/>
	<path class="st1" d="M179.1,259.2v7.5c0,0.5,0.4,0.8,0.8,0.8h2.8v-0.8c0-0.5,0.4-0.8,0.8-0.8h-2.8v-7.5c0-0.5-0.4-0.8-0.8-0.8
		h-15.7c0.9,0.6,1.7,1.1,2.5,1.7H179.1z"/>
	<path class="st1" d="M199.9,277c0.5,0,0.8-0.4,0.8-0.8s-0.4-0.8-0.8-0.8h-0.8l-0.1,1.7H199.9z"/>
	<path class="st1" d="M163.3,258.4c0,0.5,0.4,0.8,0.8,0.8h2.7c-0.8-0.5-1.6-1.1-2.5-1.7h-0.1C163.7,257.6,163.3,257.9,163.3,258.4z"
		/>
	<path class="st1" d="M194.6,282.9v-0.8h-1.9v0.8c0,0.5-0.4,0.8-0.8,0.8h3.6C194.9,283.7,194.6,283.3,194.6,282.9z"/>
	<path class="st1" d="M191,282.9v-0.8h-1.9v0.8c0,0.5-0.4,0.8-0.8,0.8h3.6C191.4,283.7,191,283.3,191,282.9z"/>
	<path class="st1" d="M196.2,282.9c0,0.5-0.4,0.8-0.8,0.8h3.4l0.1-1.7h-2.6V282.9z"/>
	<path class="st1" d="M183.7,283.7h4.6c-0.5,0-0.8-0.4-0.8-0.8v-0.8h-2.9v-14.5h-1.7v15.3C182.8,283.3,183.2,283.7,183.7,283.7z"/>
	<path class="st1" d="M199.5,283.7c0.5,0,0.8-0.4,0.8-0.8s-0.4-0.8-0.8-0.8h-0.6l-0.1,1.7H199.5z"/>
	<path class="st1" d="M182.8,266.7v0.8h1.7v-0.8c0-0.5-0.4-0.8-0.8-0.8S182.8,266.3,182.8,266.7z"/>
	<rect x="187.4" y="277" class="st1" width="1.7" height="5"/>
	<path class="st1" d="M187.4,276.2v0.8h1.7v-0.8c0-0.5-0.4-0.8-0.8-0.8S187.4,275.8,187.4,276.2z"/>
	<path class="st1" d="M189.1,282.9v-0.8h-1.7v0.8c0,0.5,0.4,0.8,0.8,0.8S189.1,283.3,189.1,282.9z"/>
	<rect x="191" y="277" class="st1" width="1.7" height="5"/>
	<path class="st1" d="M191,276.2v0.8h1.7v-0.8c0-0.5-0.4-0.8-0.8-0.8S191,275.8,191,276.2z"/>
	<path class="st1" d="M192.6,282.9v-0.8H191v0.8c0,0.5,0.4,0.8,0.8,0.8S192.6,283.3,192.6,282.9z"/>
	<rect x="194.6" y="277" class="st1" width="1.7" height="5"/>
	<path class="st1" d="M194.6,276.2v0.8h1.7v-0.8c0-0.5-0.4-0.8-0.8-0.8S194.6,275.8,194.6,276.2z"/>
	<path class="st1" d="M196.2,282.9v-0.8h-1.7v0.8c0,0.5,0.4,0.8,0.8,0.8S196.2,283.3,196.2,282.9z"/>
	<path class="st1" d="M180.9,269.2c-0.5,0-0.8,0.4-0.8,0.8v15.4h1.7v-15.4C181.7,269.6,181.4,269.2,180.9,269.2z"/>
	<path class="st1" d="M54.3,242.9C54.3,242.9,54.3,242.9,54.3,242.9C54.3,242.9,54.3,242.9,54.3,242.9z"/>
	<path class="st1" d="M54.8,243.7v1.8l4.6,3.8v4.4c0-0.5,0.4-0.8,0.8-0.8s0.8,0.4,0.8,0.8v0.8h11.2v5.6c0.5-0.4,1.1-0.8,1.7-1.1
		v-5.3c0-0.5-0.4-0.8-0.8-0.8h-12v-4c0-0.2-0.1-0.5-0.3-0.6l-6.3-5.1c0,0,0,0,0,0C54.7,243.2,54.8,243.4,54.8,243.7z"/>
	<path class="st1" d="M12.1,285.5h0.8V218h10.5l9.7,5.2v22c0-0.5,0.4-0.8,0.8-0.8c0.5,0,0.8,0.4,0.8,0.8v0.8h2.9v-0.8
		c0-0.5,0.4-0.8,0.8-0.8s0.8,0.4,0.8,0.8v-0.7h13.8v-0.8c0-0.5,0.4-0.8,0.8-0.8H38.6c-0.5,0-0.8,0.4-0.8,0.8v0.7h-2.9v-21.7
		c0-0.3-0.2-0.6-0.4-0.7l-10.3-5.5c-0.1-0.1-0.3-0.1-0.4-0.1H12.1c-0.5,0-0.8,0.4-0.8,0.8v69.1C11.3,285.9,11.6,285.5,12.1,285.5z"
		/>
	<path class="st1" d="M72.3,260.4c0,0.5,0.4,0.8,0.8,0.8s0.8-0.4,0.8-0.8v-1.5c-0.6,0.4-1.1,0.8-1.7,1.1V260.4z"/>
	<path class="st1" d="M34,246.1c-0.5,0-0.8-0.4-0.8-0.8v40.3h1.7v-39.4H34z"/>
	<path class="st1" d="M34,246.1h0.8v-0.8c0-0.5-0.4-0.8-0.8-0.8c-0.5,0-0.8,0.4-0.8,0.8S33.5,246.1,34,246.1z"/>
	<path class="st1" d="M38.6,246.1h-0.8v39.4h1.7v-40.3C39.4,245.7,39,246.1,38.6,246.1z"/>
	<path class="st1" d="M39.4,245.2c0-0.5-0.4-0.8-0.8-0.8s-0.8,0.4-0.8,0.8v0.8h0.8C39,246.1,39.4,245.7,39.4,245.2z"/>
	<path class="st1" d="M61.1,270.4c-0.1-0.2-0.1-0.5,0-0.7v-15.3h-0.8c-0.5,0-0.8-0.4-0.8-0.8v31.9h1.7L61.1,270.4
		C61.1,270.4,61.1,270.4,61.1,270.4z"/>
	<path class="st1" d="M61.1,270.4C61.1,270.4,61.1,270.4,61.1,270.4l0-0.7C61,269.9,61,270.2,61.1,270.4z"/>
	<path class="st1" d="M60.3,254.4h0.8v-0.8c0-0.5-0.4-0.8-0.8-0.8s-0.8,0.4-0.8,0.8C59.4,254.1,59.8,254.4,60.3,254.4z"/>
	<path class="st1" d="M20,222.4h-4.2c-0.5,0-0.8,0.4-0.8,0.8s0.4,0.8,0.8,0.8H20c0.5,0,0.8-0.4,0.8-0.8S20.5,222.4,20,222.4z"/>
	<path class="st1" d="M20,226.3h-4.2c-0.5,0-0.8,0.4-0.8,0.8s0.4,0.8,0.8,0.8H20c0.5,0,0.8-0.4,0.8-0.8S20.5,226.3,20,226.3z"/>
	<path class="st1" d="M20,230.2h-4.2c-0.5,0-0.8,0.4-0.8,0.8s0.4,0.8,0.8,0.8H20c0.5,0,0.8-0.4,0.8-0.8S20.5,230.2,20,230.2z"/>
	<path class="st1" d="M20,234.1h-4.2c-0.5,0-0.8,0.4-0.8,0.8s0.4,0.8,0.8,0.8H20c0.5,0,0.8-0.4,0.8-0.8S20.5,234.1,20,234.1z"/>
	<path class="st1" d="M20,238h-4.2c-0.5,0-0.8,0.4-0.8,0.8s0.4,0.8,0.8,0.8H20c0.5,0,0.8-0.4,0.8-0.8S20.5,238,20,238z"/>
	<path class="st1" d="M20,241.9h-4.2c-0.5,0-0.8,0.4-0.8,0.8s0.4,0.8,0.8,0.8H20c0.5,0,0.8-0.4,0.8-0.8S20.5,241.9,20,241.9z"/>
	<path class="st1" d="M20,245.8h-4.2c-0.5,0-0.8,0.4-0.8,0.8s0.4,0.8,0.8,0.8H20c0.5,0,0.8-0.4,0.8-0.8S20.5,245.8,20,245.8z"/>
	<path class="st1" d="M20,249.7h-4.2c-0.5,0-0.8,0.4-0.8,0.8c0,0.5,0.4,0.8,0.8,0.8H20c0.5,0,0.8-0.4,0.8-0.8
		C20.8,250,20.5,249.7,20,249.7z"/>
	<path class="st1" d="M20,253.6h-4.2c-0.5,0-0.8,0.4-0.8,0.8s0.4,0.8,0.8,0.8H20c0.5,0,0.8-0.4,0.8-0.8S20.5,253.6,20,253.6z"/>
	<path class="st1" d="M20,257.5h-4.2c-0.5,0-0.8,0.4-0.8,0.8s0.4,0.8,0.8,0.8H20c0.5,0,0.8-0.4,0.8-0.8S20.5,257.5,20,257.5z"/>
	<path class="st1" d="M20,261.4h-4.2c-0.5,0-0.8,0.4-0.8,0.8s0.4,0.8,0.8,0.8H20c0.5,0,0.8-0.4,0.8-0.8S20.5,261.4,20,261.4z"/>
	<path class="st1" d="M20,265.2h-4.2c-0.5,0-0.8,0.4-0.8,0.8c0,0.5,0.4,0.8,0.8,0.8H20c0.5,0,0.8-0.4,0.8-0.8
		C20.8,265.6,20.5,265.2,20,265.2z"/>
	<path class="st1" d="M20,269.1h-4.2c-0.5,0-0.8,0.4-0.8,0.8s0.4,0.8,0.8,0.8H20c0.5,0,0.8-0.4,0.8-0.8S20.5,269.1,20,269.1z"/>
	<path class="st1" d="M20,273h-4.2c-0.5,0-0.8,0.4-0.8,0.8s0.4,0.8,0.8,0.8H20c0.5,0,0.8-0.4,0.8-0.8S20.5,273,20,273z"/>
	<path class="st1" d="M20,276.9h-4.2c-0.5,0-0.8,0.4-0.8,0.8s0.4,0.8,0.8,0.8H20c0.5,0,0.8-0.4,0.8-0.8S20.5,276.9,20,276.9z"/>
	<path class="st1" d="M20,280.8h-4.2c-0.5,0-0.8,0.4-0.8,0.8s0.4,0.8,0.8,0.8H20c0.5,0,0.8-0.4,0.8-0.8S20.5,280.8,20,280.8z"/>
	<path class="st1" d="M25.4,222.4c-0.5,0-0.8,0.4-0.8,0.8v62.2h1.7v-62.2C26.3,222.8,25.9,222.4,25.4,222.4z"/>
	<path class="st1" d="M29.2,226.3c-0.5,0-0.8,0.4-0.8,0.8v58.4H30v-58.4C30,226.6,29.6,226.3,29.2,226.3z"/>
	<polygon class="st1" points="53.7,244.5 53.2,244.5 53.2,285.5 54.8,285.5 54.8,245.4 	"/>
	<path class="st1" d="M54.3,242.9c0.1,0,0.1,0.1,0.2,0.1C54.5,243,54.4,242.9,54.3,242.9z"/>
	<path class="st1" d="M54,242.8c0.1,0,0.2,0,0.3,0C54.2,242.9,54.1,242.8,54,242.8z"/>
	<path class="st1" d="M53.2,243.7v0.8h0.5l1.1,0.9v-1.8c0-0.3-0.1-0.5-0.3-0.6c-0.1-0.1-0.1-0.1-0.2-0.1c0,0,0,0,0,0
		c-0.1,0-0.2,0-0.3,0C53.6,242.8,53.2,243.2,53.2,243.7z"/>
	<path class="st1" d="M42.5,246.7c-0.4,0-0.8,0.4-0.8,0.8c0,0,0,0.1,0,0.1c0,0.4,0.4,0.8,0.8,0.8c0.4,0,0.8-0.4,0.8-0.8
		c0,0,0-0.1,0-0.1C43.4,247.1,43,246.7,42.5,246.7z"/>
	<path class="st1" d="M46.3,246.7c-0.4,0-0.8,0.4-0.8,0.8c0,0,0,0.1,0,0.1c0,0.4,0.4,0.8,0.8,0.8c0.4,0,0.8-0.4,0.8-0.8
		c0,0,0-0.1,0-0.1C47.1,247.1,46.7,246.7,46.3,246.7z"/>
	<path class="st1" d="M50.1,246.7c-0.4,0-0.8,0.4-0.8,0.8c0,0,0,0.1,0,0.1c0,0.4,0.4,0.8,0.8,0.8c0.4,0,0.8-0.4,0.8-0.8
		c0,0,0-0.1,0-0.1C50.9,247.1,50.5,246.7,50.1,246.7z"/>
	<path class="st1" d="M42.5,250.9c-0.4,0-0.8,0.4-0.8,0.8c0,0,0,0.1,0,0.1c0,0.4,0.4,0.8,0.8,0.8c0.4,0,0.8-0.4,0.8-0.8
		c0,0,0-0.1,0-0.1C43.4,251.3,43,250.8,42.5,250.9z"/>
	<path class="st1" d="M46.3,250.9c-0.4,0-0.8,0.4-0.8,0.8c0,0,0,0.1,0,0.1c0,0.4,0.4,0.8,0.8,0.8c0.4,0,0.8-0.4,0.8-0.8
		c0,0,0-0.1,0-0.1C47.1,251.3,46.7,250.8,46.3,250.9z"/>
	<path class="st1" d="M50.1,250.9c-0.4,0-0.8,0.4-0.8,0.8c0,0,0,0.1,0,0.1c0,0.4,0.4,0.8,0.8,0.8c0.4,0,0.8-0.4,0.8-0.8
		c0,0,0-0.1,0-0.1C50.9,251.3,50.5,250.8,50.1,250.9z"/>
	<path class="st1" d="M42.5,255c-0.4,0-0.8,0.4-0.8,0.8c0,0,0,0.1,0,0.1c0,0.4,0.4,0.8,0.8,0.8c0.4,0,0.8-0.4,0.8-0.8
		c0,0,0-0.1,0-0.1C43.4,255.4,43,255,42.5,255z"/>
	<path class="st1" d="M46.3,255c-0.4,0-0.8,0.4-0.8,0.8c0,0,0,0.1,0,0.1c0,0.4,0.4,0.8,0.8,0.8c0.4,0,0.8-0.4,0.8-0.8
		c0,0,0-0.1,0-0.1C47.1,255.4,46.7,255,46.3,255z"/>
	<path class="st1" d="M50.1,255c-0.4,0-0.8,0.4-0.8,0.8c0,0,0,0.1,0,0.1c0,0.4,0.4,0.8,0.8,0.8c0.4,0,0.8-0.4,0.8-0.8
		c0,0,0-0.1,0-0.1C50.9,255.4,50.5,255,50.1,255z"/>
	<path class="st1" d="M42.5,259.1c-0.4,0-0.8,0.4-0.8,0.8c0,0,0,0.1,0,0.1c0,0.4,0.4,0.8,0.8,0.8c0.4,0,0.8-0.4,0.8-0.8
		c0,0,0-0.1,0-0.1C43.4,259.5,43,259.1,42.5,259.1z"/>
	<path class="st1" d="M46.3,259.1c-0.4,0-0.8,0.4-0.8,0.8c0,0,0,0.1,0,0.1c0,0.4,0.4,0.8,0.8,0.8c0.4,0,0.8-0.4,0.8-0.8
		c0,0,0-0.1,0-0.1C47.1,259.5,46.7,259.1,46.3,259.1z"/>
	<path class="st1" d="M50.1,259.1c-0.4,0-0.8,0.4-0.8,0.8c0,0,0,0.1,0,0.1c0,0.4,0.4,0.8,0.8,0.8c0.4,0,0.8-0.4,0.8-0.8
		c0,0,0-0.1,0-0.1C50.9,259.5,50.5,259.1,50.1,259.1z"/>
	<path class="st1" d="M42.5,263.2c-0.4,0-0.8,0.4-0.8,0.8c0,0,0,0.1,0,0.1c0,0.4,0.4,0.8,0.8,0.8c0.4,0,0.8-0.4,0.8-0.8
		c0,0,0-0.1,0-0.1C43.4,263.6,43,263.2,42.5,263.2z"/>
	<path class="st1" d="M46.3,263.2c-0.4,0-0.8,0.4-0.8,0.8c0,0,0,0.1,0,0.1c0,0.4,0.4,0.8,0.8,0.8c0.4,0,0.8-0.4,0.8-0.8
		c0,0,0-0.1,0-0.1C47.1,263.6,46.7,263.2,46.3,263.2z"/>
	<path class="st1" d="M50.1,263.2c-0.4,0-0.8,0.4-0.8,0.8c0,0,0,0.1,0,0.1c0,0.4,0.4,0.8,0.8,0.8c0.4,0,0.8-0.4,0.8-0.8
		c0,0,0-0.1,0-0.1C50.9,263.6,50.5,263.2,50.1,263.2z"/>
	<path class="st1" d="M42.5,267.3c-0.4,0-0.8,0.4-0.8,0.8c0,0,0,0.1,0,0.1c0,0.4,0.4,0.8,0.8,0.8c0.4,0,0.8-0.4,0.8-0.8
		c0,0,0-0.1,0-0.1C43.4,267.7,43,267.3,42.5,267.3z"/>
	<path class="st1" d="M46.3,267.3c-0.4,0-0.8,0.4-0.8,0.8c0,0,0,0.1,0,0.1c0,0.4,0.4,0.8,0.8,0.8c0.4,0,0.8-0.4,0.8-0.8
		c0,0,0-0.1,0-0.1C47.1,267.7,46.7,267.3,46.3,267.3z"/>
	<path class="st1" d="M50.1,267.3c-0.4,0-0.8,0.4-0.8,0.8c0,0,0,0.1,0,0.1c0,0.4,0.4,0.8,0.8,0.8c0.4,0,0.8-0.4,0.8-0.8
		c0,0,0-0.1,0-0.1C50.9,267.7,50.5,267.3,50.1,267.3z"/>
	<path class="st1" d="M42.5,271.4c-0.4,0-0.8,0.4-0.8,0.8c0,0,0,0.1,0,0.1c0,0.4,0.4,0.8,0.8,0.8c0.4,0,0.8-0.4,0.8-0.8
		c0,0,0-0.1,0-0.1C43.4,271.8,43,271.4,42.5,271.4z"/>
	<path class="st1" d="M46.3,271.4c-0.4,0-0.8,0.4-0.8,0.8c0,0,0,0.1,0,0.1c0,0.4,0.4,0.8,0.8,0.8c0.4,0,0.8-0.4,0.8-0.8
		c0,0,0-0.1,0-0.1C47.1,271.8,46.7,271.4,46.3,271.4z"/>
	<path class="st1" d="M50.1,271.4c-0.4,0-0.8,0.4-0.8,0.8c0,0,0,0.1,0,0.1c0,0.4,0.4,0.8,0.8,0.8c0.4,0,0.8-0.4,0.8-0.8
		c0,0,0-0.1,0-0.1C50.9,271.8,50.5,271.4,50.1,271.4z"/>
	<path class="st1" d="M42.5,275.5c-0.4,0-0.8,0.4-0.8,0.8c0,0,0,0.1,0,0.1c0,0.4,0.4,0.8,0.8,0.8c0.4,0,0.8-0.4,0.8-0.8
		c0,0,0-0.1,0-0.1C43.4,275.9,43,275.5,42.5,275.5z"/>
	<path class="st1" d="M46.3,275.5c-0.4,0-0.8,0.4-0.8,0.8c0,0,0,0.1,0,0.1c0,0.4,0.4,0.8,0.8,0.8c0.4,0,0.8-0.4,0.8-0.8
		c0,0,0-0.1,0-0.1C47.1,275.9,46.7,275.5,46.3,275.5z"/>
	<path class="st1" d="M50.1,275.5c-0.4,0-0.8,0.4-0.8,0.8c0,0,0,0.1,0,0.1c0,0.4,0.4,0.8,0.8,0.8c0.4,0,0.8-0.4,0.8-0.8
		c0,0,0-0.1,0-0.1C50.9,275.9,50.5,275.5,50.1,275.5z"/>
	<path class="st1" d="M42.5,279.7c-0.4,0-0.8,0.4-0.8,0.8c0,0,0,0.1,0,0.1c0,0.4,0.4,0.8,0.8,0.8c0.4,0,0.8-0.4,0.8-0.8
		c0,0,0-0.1,0-0.1C43.4,280.1,43,279.6,42.5,279.7z"/>
	<path class="st1" d="M46.3,279.7c-0.4,0-0.8,0.4-0.8,0.8c0,0,0,0.1,0,0.1c0,0.4,0.4,0.8,0.8,0.8c0.4,0,0.8-0.4,0.8-0.8
		c0,0,0-0.1,0-0.1C47.1,280.1,46.7,279.6,46.3,279.7z"/>
	<path class="st1" d="M50.1,279.7c-0.4,0-0.8,0.4-0.8,0.8c0,0,0,0.1,0,0.1c0,0.4,0.4,0.8,0.8,0.8c0.4,0,0.8-0.4,0.8-0.8
		c0,0,0-0.1,0-0.1C50.9,280.1,50.5,279.6,50.1,279.7z"/>
	<path class="st1" d="M43.4,284.7c0,0,0-0.1,0-0.1c0-0.4-0.4-0.8-0.8-0.8c-0.4,0-0.8,0.4-0.8,0.8c0,0,0,0.1,0,0.1
		c0,0.3,0.2,0.6,0.5,0.8h0.6C43.1,285.4,43.4,285.1,43.4,284.7z"/>
	<path class="st1" d="M47.1,284.7c0,0,0-0.1,0-0.1c0-0.4-0.4-0.8-0.8-0.8c-0.4,0-0.8,0.4-0.8,0.8c0,0,0,0.1,0,0.1
		c0,0.3,0.2,0.6,0.5,0.8h0.6C46.9,285.4,47.1,285.1,47.1,284.7z"/>
	<path class="st1" d="M50.9,284.7c0,0,0-0.1,0-0.1c0-0.4-0.4-0.8-0.8-0.8c-0.4,0-0.8,0.4-0.8,0.8c0,0,0,0.1,0,0.1
		c0,0.3,0.2,0.6,0.5,0.8h0.6C50.7,285.4,50.9,285.1,50.9,284.7z"/>
	<path class="st1" d="M229.4,226.7C229.4,226.7,229.4,226.7,229.4,226.7C229.4,226.7,229.4,226.7,229.4,226.7z"/>
	<path class="st1" d="M223.6,228.3v2.7c0,0.3,0.2,0.6,0.4,0.7c0.3,0.1,0.6,0.1,0.9,0l3.9-2.6v-1.6c0-0.3,0.1-0.5,0.4-0.7
		c0,0,0,0,0,0l-3.9,2.6v-1.9c0-0.5-0.4-0.8-0.8-0.8h-7.3l0.1,1.7H223.6z"/>
	<path class="st1" d="M304.3,257.5c-0.5,0-0.8-0.4-0.8-0.8V256l-2.9,0.8c-0.4,0.1-0.6,0.4-0.6,0.8v5.6h0.8c0.5,0,0.8,0.4,0.8,0.8
		v-5.8l9.7-2.8v-1.1c0-0.5,0.4-0.8,0.8-0.8s0.8,0.4,0.8,0.8v-3.6h5.9v-0.8c0-0.5,0.4-0.8,0.8-0.8s0.8,0.4,0.8,0.8v-5.4h-0.8
		c-0.5,0-0.8-0.4-0.8-0.8v5.4h-6.7c-0.5,0-0.8,0.4-0.8,0.8v3.8l-6.3,1.8v1.1C305.1,257.1,304.7,257.5,304.3,257.5z"/>
	<path class="st1" d="M285.5,269.9h15.3c0.5,0,0.8-0.4,0.8-0.8v-5c0,0.5-0.4,0.8-0.8,0.8H300v3.3h-13.6v-6.4h-0.8
		c-0.5,0-0.8-0.4-0.8-0.8v8.1C284.7,269.5,285.1,269.9,285.5,269.9z"/>
	<path class="st1" d="M363.9,236.1h1.7V231c0-0.5-0.4-0.8-0.8-0.8h-3v0.8c0,0.5-0.4,0.8-0.8,0.8h3V236.1z"/>
	<path class="st1" d="M274,230v0.8h2.2V230c0-0.5,0.4-0.8,0.8-0.8h-3.9C273.7,229.1,274,229.5,274,230z"/>
	<path class="st1" d="M230.5,227.5v0.8h9.7v9.9c0-0.5,0.4-0.8,0.8-0.8s0.8,0.4,0.8,0.8v0.5l5.6-2.5h11.9v26c0-0.5,0.4-0.8,0.8-0.8
		s0.8,0.4,0.8,0.8v0.8h3.6c0.5,0,0.8-0.4,0.8-0.8v-27.8l7-3.2V230c0-0.3,0.2-0.6,0.5-0.8c0,0,0,0,0,0l-8.6,4
		c-0.3,0.1-0.5,0.4-0.5,0.8v27.5H261v-26c0-0.5-0.4-0.8-0.8-0.8h-12.9c-0.1,0-0.2,0-0.3,0.1l-5.1,2.2v-9.4c0-0.5-0.4-0.8-0.8-0.8
		h-11.4C230.1,226.6,230.5,227,230.5,227.5z"/>
	<path class="st1" d="M277.9,230v0.8h6.8V261c0-0.5,0.4-0.8,0.8-0.8h0.8V230c0-0.5-0.4-0.8-0.8-0.8h-8.5
		C277.5,229.1,277.9,229.5,277.9,230z"/>
	<path class="st1" d="M340,244.5v-0.1c-0.1,0.1-0.3,0.1-0.4,0.1H340z"/>
	<path class="st1" d="M273,229.2C273,229.2,273,229.2,273,229.2C273,229.2,273,229.2,273,229.2z"/>
	<path class="st1" d="M319.7,242.8h0.8v-19.6l7-2.7h11.2v22.2h0.8c0.2,0,0.5,0.1,0.6,0.3c0.2-0.2,0.4-0.3,0.6-0.3h-0.4v-23.1
		c0-0.5-0.4-0.8-0.8-0.8h-12.1c-0.1,0-0.2,0-0.3,0.1l-7.7,2.9c-0.3,0.1-0.5,0.4-0.5,0.8v21C318.9,243.2,319.3,242.8,319.7,242.8z"/>
	<path class="st1" d="M341.6,243.7v0.8h0.1c0.5,0,0.8-0.4,0.8-0.8V234l5.9-2.1h12.4c-0.5,0-0.8-0.4-0.8-0.8v-0.8h-11.7
		c-0.1,0-0.2,0-0.3,0l-6.6,2.4c-0.3,0.1-0.5,0.4-0.5,0.8v9.5h-0.1C341.3,242.8,341.6,243.2,341.6,243.7z"/>
	<path class="st1" d="M215.6,227.5c0,0.5,0.4,0.8,0.8,0.8h0.9l-0.1-1.7h-0.8C216,226.6,215.6,227,215.6,227.5z"/>
	<path class="st1" d="M361.7,228.9h11v2.3l1.7-0.4V228c0-0.5-0.4-0.8-0.8-0.8h-12.7c-0.5,0-0.8,0.4-0.8,0.8v2.1h1.7V228.9z"/>
	<path class="st1" d="M360.9,231.8c0.5,0,0.8-0.4,0.8-0.8v-0.8h-1.7v0.8C360.1,231.4,360.5,231.8,360.9,231.8z"/>
	<path class="st1" d="M409.3,238.1c-0.2-0.2-0.4-0.2-0.7-0.2l-16.3,2.6v-10.6c0-0.5-0.4-0.8-0.8-0.8h-9c-0.1,0-0.1,0-0.2,0l-7.8,1.7
		v0.9c0,0.5-0.4,0.8-0.8,0.8s-0.8-0.4-0.8-0.8v-0.6l-2.3,0.5c-0.4,0.1-0.7,0.4-0.7,0.8v5.7h1.7v-5.1l11-2.4h8.1v10.8
		c0-0.5,0.4-0.8,0.8-0.8s0.8,0.4,0.8,0.8v0.7l15.6-2.5v5.7h0.8c0.5,0,0.8,0.4,0.8,0.8v-7.5C409.6,238.5,409.5,238.2,409.3,238.1z"/>
	<path class="st1" d="M408.7,247.1h-0.8v39.3c0,0.5,0.4,0.8,0.8,0.8s0.8-0.4,0.8-0.8v-40.1C409.6,246.7,409.2,247.1,408.7,247.1z"/>
	<path class="st1" d="M372.8,231.7c0,0.5,0.4,0.8,0.8,0.8s0.8-0.4,0.8-0.8v-0.9l-1.7,0.4V231.7z"/>
	<path class="st1" d="M293,261.8v2.3c0,0.5,0.4,0.8,0.8,0.8h6.2v-1.7h-5.3V261c0,0.5-0.4,0.8-0.8,0.8s-0.8-0.4-0.8-0.8v-0.8h-6.6
		v1.7H293z"/>
	<path class="st1" d="M284.7,261c0,0.5,0.4,0.8,0.8,0.8h0.8v-1.7h-0.8C285.1,260.1,284.7,260.5,284.7,261z"/>
	<path class="st1" d="M301.6,264.1c0-0.5-0.4-0.8-0.8-0.8H300v1.7h0.8C301.2,264.9,301.6,264.5,301.6,264.1z"/>
	<path class="st1" d="M294.6,261v-4.3l8.8-2.5v1.9l1.7-0.5V253c0-0.3-0.1-0.5-0.3-0.7c-0.2-0.2-0.5-0.2-0.7-0.1l-10.5,2.9
		c-0.4,0.1-0.6,0.4-0.6,0.8v4.1h0.8C294.3,260.1,294.6,260.5,294.6,261z"/>
	<path class="st1" d="M303.4,256.6c0,0.5,0.4,0.8,0.8,0.8s0.8-0.4,0.8-0.8v-1.1l-1.7,0.5V256.6z"/>
	<path class="st1" d="M293.8,261.8c0.5,0,0.8-0.4,0.8-0.8s-0.4-0.8-0.8-0.8H293v0.8C293,261.4,293.3,261.8,293.8,261.8z"/>
	<path class="st1" d="M222.1,232c-0.5,0-0.8,0.4-0.8,0.8v52.7h1.7v-52.7C222.9,232.4,222.5,232,222.1,232z"/>
	<polygon class="st1" points="229.9,228.3 228.8,229 228.8,285.5 230.5,285.5 230.5,228.3 	"/>
	<path class="st1" d="M229.4,226.7c0.1,0,0.1,0,0.2,0C229.5,226.6,229.5,226.7,229.4,226.7z"/>
	<path class="st1" d="M229.2,226.8c0.1,0,0.1-0.1,0.2-0.1C229.3,226.7,229.2,226.7,229.2,226.8z"/>
	<path class="st1" d="M228.8,227.5v1.6l1.1-0.7h0.6v-0.8c0-0.5-0.4-0.8-0.8-0.8c-0.1,0-0.1,0-0.2,0c0,0,0,0,0,0
		c-0.1,0-0.1,0.1-0.2,0.1C228.9,226.9,228.8,227.2,228.8,227.5z"/>
	<path class="st1" d="M226.1,235.3c1.1,0,1.1-1.7,0-1.7C225.1,233.6,225.1,235.3,226.1,235.3z"/>
	<path class="st1" d="M226.1,238.1c-1.1,0-1.1,1.7,0,1.7C227.2,239.7,227.2,238.1,226.1,238.1z"/>
	<path class="st1" d="M226.1,242.5c-1.1,0-1.1,1.7,0,1.7C227.2,244.1,227.2,242.5,226.1,242.5z"/>
	<path class="st1" d="M226.1,246.9c-1.1,0-1.1,1.7,0,1.7C227.2,248.5,227.2,246.9,226.1,246.9z"/>
	<path class="st1" d="M226.1,251.3c-1.1,0-1.1,1.7,0,1.7C227.2,253,227.2,251.3,226.1,251.3z"/>
	<path class="st1" d="M226.1,255.7c-1.1,0-1.1,1.7,0,1.7C227.2,257.4,227.2,255.7,226.1,255.7z"/>
	<path class="st1" d="M226.1,260.1c-1.1,0-1.1,1.7,0,1.7C227.2,261.8,227.2,260.1,226.1,260.1z"/>
	<path class="st1" d="M226.1,264.5c-1.1,0-1.1,1.7,0,1.7C227.2,266.2,227.2,264.5,226.1,264.5z"/>
	<path class="st1" d="M226.1,269c-1.1,0-1.1,1.7,0,1.7C227.2,270.6,227.2,269,226.1,269z"/>
	<path class="st1" d="M226.1,273.4c-1.1,0-1.1,1.7,0,1.7C227.2,275,227.2,273.4,226.1,273.4z"/>
	<path class="st1" d="M226.1,277.8c-1.1,0-1.1,1.7,0,1.7C227.2,279.4,227.2,277.8,226.1,277.8z"/>
	<path class="st1" d="M226.1,282.2c-1.1,0-1.1,1.7,0,1.7C227.2,283.8,227.2,282.2,226.1,282.2z"/>
	<path class="st1" d="M233.2,230.3c-1.1,0-1.1,1.7,0,1.7C234.3,232,234.3,230.3,233.2,230.3z"/>
	<path class="st1" d="M233.2,234.7c-1.1,0-1.1,1.7,0,1.7C234.3,236.4,234.3,234.7,233.2,234.7z"/>
	<path class="st1" d="M233.2,239.2c-1.1,0-1.1,1.7,0,1.7C234.3,240.8,234.3,239.2,233.2,239.2z"/>
	<path class="st1" d="M233.2,243.6c-1.1,0-1.1,1.7,0,1.7C234.3,245.2,234.3,243.6,233.2,243.6z"/>
	<path class="st1" d="M233.2,248c-1.1,0-1.1,1.7,0,1.7C234.3,249.6,234.3,248,233.2,248z"/>
	<path class="st1" d="M233.2,252.4c-1.1,0-1.1,1.7,0,1.7C234.3,254.1,234.3,252.4,233.2,252.4z"/>
	<path class="st1" d="M233.2,256.8c-1.1,0-1.1,1.7,0,1.7C234.3,258.5,234.3,256.8,233.2,256.8z"/>
	<path class="st1" d="M233.2,261.2c-1.1,0-1.1,1.7,0,1.7C234.3,262.9,234.3,261.2,233.2,261.2z"/>
	<path class="st1" d="M233.2,265.6c-1.1,0-1.1,1.7,0,1.7C234.3,267.3,234.3,265.6,233.2,265.6z"/>
	<path class="st1" d="M233.2,270.1c-1.1,0-1.1,1.7,0,1.7C234.3,271.7,234.3,270.1,233.2,270.1z"/>
	<path class="st1" d="M233.2,274.5c-1.1,0-1.1,1.7,0,1.7C234.3,276.1,234.3,274.5,233.2,274.5z"/>
	<path class="st1" d="M233.2,278.9c-1.1,0-1.1,1.7,0,1.7C234.3,280.5,234.3,278.9,233.2,278.9z"/>
	<path class="st1" d="M236.1,230.3c-1.1,0-1.1,1.7,0,1.7C237.1,232,237.1,230.3,236.1,230.3z"/>
	<path class="st1" d="M236.1,234.7c-1.1,0-1.1,1.7,0,1.7C237.1,236.4,237.1,234.7,236.1,234.7z"/>
	<path class="st1" d="M236.1,239.2c-1.1,0-1.1,1.7,0,1.7C237.1,240.8,237.1,239.2,236.1,239.2z"/>
	<path class="st1" d="M236.1,243.6c-1.1,0-1.1,1.7,0,1.7C237.1,245.2,237.1,243.6,236.1,243.6z"/>
	<path class="st1" d="M236.1,248c-1.1,0-1.1,1.7,0,1.7C237.1,249.6,237.1,248,236.1,248z"/>
	<path class="st1" d="M236.1,252.4c-1.1,0-1.1,1.7,0,1.7C237.1,254.1,237.1,252.4,236.1,252.4z"/>
	<path class="st1" d="M236.1,256.8c-1.1,0-1.1,1.7,0,1.7C237.1,258.5,237.1,256.8,236.1,256.8z"/>
	<path class="st1" d="M236.1,261.2c-1.1,0-1.1,1.7,0,1.7C237.1,262.9,237.1,261.2,236.1,261.2z"/>
	<path class="st1" d="M236.1,265.6c-1.1,0-1.1,1.7,0,1.7C237.1,267.3,237.1,265.6,236.1,265.6z"/>
	<path class="st1" d="M236.1,270.1c-1.1,0-1.1,1.7,0,1.7C237.1,271.7,237.1,270.1,236.1,270.1z"/>
	<path class="st1" d="M236.1,274.5c-1.1,0-1.1,1.7,0,1.7C237.1,276.1,237.1,274.5,236.1,274.5z"/>
	<path class="st1" d="M236.1,278.9c-1.1,0-1.1,1.7,0,1.7C237.1,280.5,237.1,278.9,236.1,278.9z"/>
	<path class="st1" d="M241.8,245c0-0.1,0-0.1-0.1-0.2C241.8,244.9,241.8,244.9,241.8,245z"/>
	<path class="st1" d="M240.4,245.8c-0.2-0.2-0.3-0.4-0.3-0.6v24.8h1.7v-23.9C240.7,246.1,240.6,246,240.4,245.8z"/>
	<path class="st1" d="M241,244.4c0.1,0,0.2,0,0.3,0.1c0.1,0,0.3,0,0.5,0v-5.8l-0.5,0.2c-0.3,0.1-0.6,0.1-0.8-0.1
		c-0.2-0.2-0.4-0.4-0.4-0.7v7.1C240.2,244.8,240.6,244.4,241,244.4z"/>
	<path class="st1" d="M240.6,238.8c0.2,0.2,0.5,0.2,0.8,0.1l0.5-0.2v-0.5c0-0.5-0.4-0.8-0.8-0.8s-0.8,0.4-0.8,0.8
		C240.2,238.4,240.3,238.7,240.6,238.8z"/>
	<path class="st1" d="M258.2,245.2c0-0.2-0.1-0.4-0.2-0.6c-0.2-0.2-0.4-0.2-0.6-0.2c-5.1,0.1-13.2,0.2-15.5,0.1v0.7v0.9
		c1.7,0.1,5.5,0.1,14.7-0.1v18.5h1.7V245.2z"/>
	<path class="st1" d="M241.9,245.2c0-0.1,0-0.2,0-0.2C241.8,245.1,241.9,245.2,241.9,245.2z"/>
	<path class="st1" d="M241.9,246.1v-0.9c0-0.1,0-0.2,0-0.2c0-0.1,0-0.1-0.1-0.2c0,0.1,0.1,0.1,0.1,0.2c0,0.1,0,0.1,0,0.2v-0.7
		c-0.2,0-0.4,0-0.5,0c-0.1,0-0.2-0.1-0.3-0.1c-0.5,0-0.8,0.4-0.8,0.8c0,0.2,0.1,0.4,0.3,0.6C240.6,246,240.7,246.1,241.9,246.1z"/>
	<path class="st1" d="M243,271.7v-0.8c0-0.5,0.4-0.8,0.8-0.8s0.8,0.4,0.8,0.8v-4.7h12.8c-0.5,0-0.8-0.4-0.8-0.8v-0.8h-12.8
		c-0.5,0-0.8,0.4-0.8,0.8v4.7h-1.1v0c0,0.5-0.4,0.8-0.8,0.8s-0.8-0.4-0.8-0.8v0h-1.4c-0.5,0-0.8,0.4-0.8,0.8v14.6h1.7v-13.8H243z"/>
	<path class="st1" d="M258.2,264.5v0.8c0,0.5-0.4,0.8-0.8,0.8h1.9v-0.8c0-0.5,0.4-0.8,0.8-0.8s0.8,0.4,0.8,0.8v-2.3h-0.8
		c-0.5,0-0.8-0.4-0.8-0.8v2.3H258.2z"/>
	<path class="st1" d="M260.1,263.1h0.8v-0.8c0-0.5-0.4-0.8-0.8-0.8s-0.8,0.4-0.8,0.8S259.7,263.1,260.1,263.1z"/>
	<path class="st1" d="M240.2,270.1c0,0.5,0.4,0.8,0.8,0.8s0.8-0.4,0.8-0.8v0L240.2,270.1L240.2,270.1z"/>
	<path class="st1" d="M258.2,265.4v-0.8h-1.7v0.8c0,0.5,0.4,0.8,0.8,0.8S258.2,265.8,258.2,265.4z"/>
	<path class="st1" d="M260.1,266.2h-0.8v19.3h1.7v-20.1C261,265.8,260.6,266.2,260.1,266.2z"/>
	<path class="st1" d="M260.1,264.5c-0.5,0-0.8,0.4-0.8,0.8v0.8h0.8c0.5,0,0.8-0.4,0.8-0.8S260.6,264.5,260.1,264.5z"/>
	<path class="st1" d="M272.9,229.2c0,0,0.1,0,0.1,0C272.9,229.2,272.9,229.2,272.9,229.2z"/>
	<path class="st1" d="M273,229.2c0.1,0,0.1,0,0.2,0C273.1,229.1,273.1,229.2,273,229.2z"/>
	<polygon class="st1" points="274,261.7 274,230.8 273.4,230.8 272.4,231.3 272.4,261.7 	"/>
	<path class="st1" d="M272.4,230v1.3l1-0.5h0.6V230c0-0.5-0.4-0.8-0.8-0.8c-0.1,0-0.1,0-0.2,0c0,0,0,0,0,0c0,0-0.1,0-0.1,0
		C272.6,229.3,272.4,229.6,272.4,230z"/>
	<path class="st1" d="M277.1,269.9h4.6v3.9l1.7-0.2V269c0-0.5-0.4-0.8-0.8-0.8h-4.6v-37.4h-1.7V269
		C276.2,269.5,276.6,269.9,277.1,269.9z"/>
	<path class="st1" d="M276.2,230v0.8h1.7V230c0-0.5-0.4-0.8-0.8-0.8S276.2,229.5,276.2,230z"/>
	<path class="st1" d="M275,261.7h-1v0.8c0,0.5-0.4,0.8-0.8,0.8h1v22.2h1.7v-23C275.9,262.1,275.5,261.7,275,261.7z"/>
	<path class="st1" d="M273.2,263.3c-0.5,0-0.8-0.4-0.8-0.8v-0.8h-2.7c-0.5,0-0.8,0.4-0.8,0.8v23h1.7v-22.2H273.2z"/>
	<path class="st1" d="M272.4,262.5c0,0.5,0.4,0.8,0.8,0.8s0.8-0.4,0.8-0.8v-0.8h-1.7V262.5z"/>
	<path class="st1" d="M266.6,269.2c-0.5,0-0.8,0.4-0.8,0.8v15.4h1.7v-15.4C267.4,269.6,267,269.2,266.6,269.2z"/>
	<path class="st1" d="M263.4,269.2c-0.5,0-0.8,0.4-0.8,0.8v15.4h1.7v-15.4C264.2,269.6,263.8,269.2,263.4,269.2z"/>
	<path class="st1" d="M243.8,271.7H243v13.8h1.7v-14.6C244.6,271.3,244.2,271.7,243.8,271.7z"/>
	<path class="st1" d="M243.8,270.1c-0.5,0-0.8,0.4-0.8,0.8v0.8h0.8c0.5,0,0.8-0.4,0.8-0.8S244.2,270.1,243.8,270.1z"/>
	<path class="st1" d="M253.2,271.7h-4.8c-0.5,0-0.8,0.4-0.8,0.8s0.4,0.8,0.8,0.8h4.8c0.5,0,0.8-0.4,0.8-0.8S253.6,271.7,253.2,271.7
		z"/>
	<path class="st1" d="M253.2,275h-4.8c-0.5,0-0.8,0.4-0.8,0.8s0.4,0.8,0.8,0.8h4.8c0.5,0,0.8-0.4,0.8-0.8S253.6,275,253.2,275z"/>
	<path class="st1" d="M253.2,278.3h-4.8c-0.5,0-0.8,0.4-0.8,0.8c0,0.5,0.4,0.8,0.8,0.8h4.8c0.5,0,0.8-0.4,0.8-0.8
		C254,278.7,253.6,278.3,253.2,278.3z"/>
	<path class="st1" d="M253.2,281.6h-4.8c-0.5,0-0.8,0.4-0.8,0.8s0.4,0.8,0.8,0.8h4.8c0.5,0,0.8-0.4,0.8-0.8S253.6,281.6,253.2,281.6
		z"/>
	<path class="st1" d="M308,272.7h-18.1c0.5,0,0.8,0.4,0.8,0.8v0.8h16.4v11.2h1.7v-12C308.8,273,308.5,272.7,308,272.7z"/>
	<path class="st1" d="M289.1,274.4v-0.9c0-0.5,0.4-0.8,0.8-0.8c0,0-0.1,0-0.1,0l-6.5,0.8v0.7c0,0.5-0.4,0.8-0.8,0.8
		s-0.8-0.4-0.8-0.8v-0.5l-2,0.3c-0.4,0.1-0.7,0.4-0.7,0.8v10.7h1.7v-10L289.1,274.4z"/>
	<path class="st1" d="M281.7,274.2c0,0.5,0.4,0.8,0.8,0.8s0.8-0.4,0.8-0.8v-0.7l-1.7,0.2V274.2z"/>
	<polygon class="st1" points="290,274.3 289.1,274.4 289.1,285.5 290.8,285.5 290.8,274.3 	"/>
	<path class="st1" d="M289.1,273.5v0.9l0.9-0.1h0.8v-0.8c0-0.5-0.4-0.8-0.8-0.8S289.1,273,289.1,273.5z"/>
	<path class="st1" d="M295.3,275c-0.5,0-0.8,0.4-0.8,0.8v9.7h1.7v-9.7C296.1,275.4,295.8,275,295.3,275z"/>
	<path class="st1" d="M298.9,275c-0.5,0-0.8,0.4-0.8,0.8v9.7h1.7v-9.7C299.8,275.4,299.4,275,298.9,275z"/>
	<path class="st1" d="M302.6,275c-0.5,0-0.8,0.4-0.8,0.8v9.7h1.7v-9.7C303.4,275.4,303,275,302.6,275z"/>
	<path class="st1" d="M312.4,255.1l-1.1,0.3v30.1h1.7v-31.2C313,254.7,312.8,255,312.4,255.1z"/>
	<path class="st1" d="M313,254.3c0-0.5-0.4-0.8-0.8-0.8s-0.8,0.4-0.8,0.8v1.1l1.1-0.3C312.8,255,313,254.7,313,254.3z"/>
	<path class="st1" d="M316.6,253.3c-0.5,0-0.8,0.4-0.8,0.8v31.4h1.7v-31.4C317.4,253.6,317,253.3,316.6,253.3z"/>
	<path class="st1" d="M319.7,255.3c-0.5,0-0.8-0.4-0.8-0.8v31h1.7v-30.2H319.7z"/>
	<path class="st1" d="M319.7,253.7h0.8v-3.8c0,0.5-0.4,0.8-0.8,0.8h-0.8v3.8C318.9,254.1,319.3,253.7,319.7,253.7z"/>
	<path class="st1" d="M320.5,249.9c0-0.5-0.4-0.8-0.8-0.8s-0.8,0.4-0.8,0.8v0.8h0.8C320.2,250.7,320.5,250.4,320.5,249.9z"/>
	<path class="st1" d="M304.1,260c0,0-0.1,0-0.1,0c-0.4,0-0.8,0.4-0.8,0.8c0,0.4,0.4,0.8,0.8,0.8c0,0,0.1,0,0.1,0
		c0.4,0,0.8-0.4,0.8-0.8C304.9,260.4,304.6,260,304.1,260z"/>
	<path class="st1" d="M306.9,259.1c0,0-0.1,0.1-0.1,0.1c-0.3,0.3-0.3,0.9,0,1.2c0.3,0.3,0.9,0.3,1.2,0c0,0,0.1-0.1,0.1-0.1
		c0.3-0.3,0.3-0.9,0-1.2C307.7,258.8,307.2,258.8,306.9,259.1z"/>
	<path class="st1" d="M304.1,264.4c0,0-0.1,0-0.1,0c-0.4,0-0.8,0.4-0.8,0.8c0,0.4,0.4,0.8,0.8,0.8c0,0,0.1,0,0.1,0
		c0.4,0,0.8-0.4,0.8-0.8C304.9,264.7,304.6,264.4,304.1,264.4z"/>
	<path class="st1" d="M306.9,263.5c0,0-0.1,0.1-0.1,0.1c-0.3,0.3-0.3,0.9,0,1.2c0.3,0.3,0.9,0.3,1.2,0c0,0,0.1-0.1,0.1-0.1
		c0.3-0.3,0.3-0.9,0-1.2C307.7,263.2,307.2,263.2,306.9,263.5z"/>
	<path class="st1" d="M304.1,268.7c0,0-0.1,0-0.1,0c-0.4,0-0.8,0.4-0.8,0.8c0,0.4,0.4,0.8,0.8,0.8c0,0,0.1,0,0.1,0
		c0.4,0,0.8-0.4,0.8-0.8C304.9,269.1,304.6,268.7,304.1,268.7z"/>
	<path class="st1" d="M306.9,267.9c0,0-0.1,0.1-0.1,0.1c-0.3,0.3-0.3,0.9,0,1.2c0.3,0.3,0.9,0.3,1.2,0c0,0,0.1-0.1,0.1-0.1
		c0.3-0.3,0.3-0.9,0-1.2C307.7,267.5,307.2,267.5,306.9,267.9z"/>
	<path class="st1" d="M281.4,233.5c-1.1,0-1.1,1.7,0,1.7C282.4,235.2,282.5,233.5,281.4,233.5z"/>
	<path class="st1" d="M281.4,237.3c-1.1,0-1.1,1.7,0,1.7C282.4,239,282.5,237.3,281.4,237.3z"/>
	<path class="st1" d="M281.4,241.1c-1.1,0-1.1,1.7,0,1.7C282.4,242.8,282.5,241.1,281.4,241.1z"/>
	<path class="st1" d="M281.4,245c-1.1,0-1.1,1.7,0,1.7C282.4,246.6,282.5,245,281.4,245z"/>
	<path class="st1" d="M281.4,248.8c-1.1,0-1.1,1.7,0,1.7C282.4,250.4,282.5,248.8,281.4,248.8z"/>
	<path class="st1" d="M281.4,252.6c-1.1,0-1.1,1.7,0,1.7C282.4,254.2,282.5,252.6,281.4,252.6z"/>
	<path class="st1" d="M281.4,256.4c-1.1,0-1.1,1.7,0,1.7C282.4,258.1,282.5,256.4,281.4,256.4z"/>
	<path class="st1" d="M281.4,260.2c-1.1,0-1.1,1.7,0,1.7C282.4,261.9,282.5,260.2,281.4,260.2z"/>
	<path class="st1" d="M338.8,243.7v-0.8h-18.2v1.7h19C339.1,244.5,338.8,244.1,338.8,243.7z"/>
	<path class="st1" d="M339.6,244.5c0.2,0,0.3,0,0.4-0.1v-0.7c0-0.2,0.1-0.4,0.2-0.5c-0.2-0.2-0.4-0.3-0.6-0.3h-0.8v0.8
		C338.8,244.1,339.1,244.5,339.6,244.5z"/>
	<path class="st1" d="M319.7,244.5h0.8v-1.7h-0.8c-0.5,0-0.8,0.4-0.8,0.8S319.3,244.5,319.7,244.5z"/>
	<rect x="340" y="244.5" class="st1" width="1.7" height="20"/>
	<path class="st1" d="M340.2,243.1c0.1,0.1,0.2,0.3,0.2,0.5c0,0.3-0.2,0.6-0.4,0.7v0.1h1.7v-0.8c0-0.5-0.4-0.8-0.8-0.8
		C340.6,242.8,340.4,243,340.2,243.1z"/>
	<path class="st1" d="M340,244.4c0.2-0.1,0.4-0.4,0.4-0.7c0-0.2-0.1-0.4-0.2-0.5c-0.1,0.1-0.2,0.3-0.2,0.5V244.4z"/>
	<path class="st1" d="M340,265.4v-0.8h-13.4v-10c0-0.5-0.4-0.8-0.8-0.8h-5.2v1.7h4.4v10c0,0.5,0.4,0.8,0.8,0.8h15
		C340.4,266.2,340,265.8,340,265.4z"/>
	<path class="st1" d="M369,237c0-0.5-0.4-0.8-0.8-0.8h-2.5v0.4c0,0.5-0.4,0.8-0.8,0.8s-0.8-0.4-0.8-0.8v-0.4h-4.6
		c-0.5,0-0.8,0.4-0.8,0.8v6.6h-4.6c0.5,0,0.8,0.4,0.8,0.8s-0.4,0.8-0.8,0.8h4.6v-0.8c0-0.5,0.4-0.8,0.8-0.8s0.8,0.4,0.8,0.8v-6.6
		h7.2v1.2c0,0.5,0.4,0.8,0.8,0.8h6.5v3.7h0.6c0.5,0,0.8,0.4,0.8,0.8s-0.4,0.8-0.8,0.8h-0.6v1.2h0.6c0.5,0,0.8,0.4,0.8,0.8
		s-0.4,0.8-0.8,0.8h-0.6v1.2h0c0.1-0.3,0.4-0.6,0.8-0.6h0.8V239c0-0.5-0.4-0.8-0.8-0.8h-4v0.5c0,0.5-0.4,0.8-0.8,0.8
		s-0.8-0.4-0.8-0.8v-0.5H369V237z"/>
	<path class="st1" d="M376,250.4c-0.1,0.3-0.4,0.6-0.8,0.6h-0.6v1.2h0.6c0.5,0,0.8,0.4,0.8,0.8s-0.4,0.8-0.8,0.8h-0.6v1.2h0.6
		c0.5,0,0.8,0.4,0.8,0.8c0,0.5-0.4,0.8-0.8,0.8h-0.6v1.2h0.6c0.5,0,0.8,0.4,0.8,0.8s-0.4,0.8-0.8,0.8h-0.6v1.2h0.6
		c0.5,0,0.8,0.4,0.8,0.8s-0.4,0.8-0.8,0.8h-0.6v1.2h0.6c0.5,0,0.8,0.4,0.8,0.8s-0.4,0.8-0.8,0.8h-0.6v1.2h0.6c0.5,0,0.8,0.4,0.8,0.8
		s-0.4,0.8-0.8,0.8h-0.6v1.2h0.6c0.5,0,0.8,0.4,0.8,0.8s-0.4,0.8-0.8,0.8h-0.6v1.2h0.6c0.5,0,0.8,0.4,0.8,0.8s-0.4,0.8-0.8,0.8h-0.6
		v1.2h0.6c0.5,0,0.8,0.4,0.8,0.8s-0.4,0.8-0.8,0.8h-0.6v1.2h0.6c0.5,0,0.8,0.4,0.8,0.8c0,0.5-0.4,0.8-0.8,0.8h-0.6v1.2h0.6
		c0.5,0,0.8,0.4,0.8,0.8s-0.4,0.8-0.8,0.8h-0.6v1.2h0.6c0.5,0,0.8,0.4,0.8,0.8c0,0.2-0.1,0.4-0.2,0.6h0.4v-35.1H376z"/>
	<path class="st1" d="M349.8,244.4c0-0.5,0.4-0.8,0.8-0.8H348c-0.5,0-0.8,0.4-0.8,0.8v17H345c-0.5,0-0.8,0.4-0.8,0.8v2.3h-2.5v0.8
		c0,0.5-0.4,0.8-0.8,0.8h4.1c0.5,0,0.8-0.4,0.8-0.8v-2.3h2.2c0.5,0,0.8-0.4,0.8-0.8v-17h1.8C350.2,245.2,349.8,244.9,349.8,244.4z"
		/>
	<path class="st1" d="M363.9,236.5c0,0.5,0.4,0.8,0.8,0.8s0.8-0.4,0.8-0.8v-0.4h-1.7V236.5z"/>
	<path class="st1" d="M370.7,239.5c0.5,0,0.8-0.4,0.8-0.8v-0.5h-1.7v0.5C369.8,239.2,370.2,239.5,370.7,239.5z"/>
	<path class="st1" d="M319.7,253.7c-0.5,0-0.8,0.4-0.8,0.8c0,0.5,0.4,0.8,0.8,0.8h0.8v-1.7H319.7z"/>
	<path class="st1" d="M341.6,265.4v-0.8H340v0.8c0,0.5,0.4,0.8,0.8,0.8S341.6,265.8,341.6,265.4z"/>
	<path class="st1" d="M392.3,246.2c0,0.5-0.4,0.8-0.8,0.8h7.5v-0.8c0-0.5,0.4-0.8,0.8-0.8h-7.5V246.2z"/>
	<path class="st1" d="M399.8,245.4c0.5,0,0.8,0.4,0.8,0.8v0.8h7.3v-1.7H399.8z"/>
	<path class="st1" d="M385.4,250.4v-0.8c0-0.5,0.4-0.8,0.8-0.8s0.8,0.4,0.8,0.8v-2.5h4.4c-0.5,0-0.8-0.4-0.8-0.8v-0.8h-4.4
		c-0.5,0-0.8,0.4-0.8,0.8v2.5h-9.1v1.7H385.4z"/>
	<path class="st1" d="M408.7,245.4h-0.8v1.7h0.8c0.5,0,0.8-0.4,0.8-0.8S409.2,245.4,408.7,245.4z"/>
	<path class="st1" d="M376,250.2c0,0.1,0,0.2,0,0.2h0.3v-1.7h-0.8c-0.4,0-0.7,0.3-0.8,0.6h0.6C375.7,249.4,376,249.7,376,250.2z"/>
	<path class="st1" d="M323.3,256.4c-0.5,0-0.8,0.4-0.8,0.8v28.3h1.7v-28.3C324.1,256.8,323.8,256.4,323.3,256.4z"/>
	<path class="st1" d="M335.6,271.7c-0.5,0-0.8,0.4-0.8,0.8v13h1.7v-13C336.4,272.1,336,271.7,335.6,271.7z"/>
	<path class="st1" d="M339.3,271.7c-0.5,0-0.8,0.4-0.8,0.8v13h1.7v-13C340.2,272.1,339.8,271.7,339.3,271.7z"/>
	<path class="st1" d="M343.1,271.7c-0.5,0-0.8,0.4-0.8,0.8v13h1.7v-13C343.9,272.1,343.5,271.7,343.1,271.7z"/>
	<path class="st1" d="M346.8,271.7c-0.5,0-0.8,0.4-0.8,0.8v13h1.7v-13C347.6,272.1,347.3,271.7,346.8,271.7z"/>
	<path class="st1" d="M329,271h-2.6c-0.5,0-0.8,0.4-0.8,0.8s0.4,0.8,0.8,0.8h2.6c0.5,0,0.8-0.4,0.8-0.8S329.4,271,329,271z"/>
	<path class="st1" d="M329,273.7h-2.6c-0.5,0-0.8,0.4-0.8,0.8s0.4,0.8,0.8,0.8h2.6c0.5,0,0.8-0.4,0.8-0.8S329.4,273.7,329,273.7z"/>
	<path class="st1" d="M329,276.4h-2.6c-0.5,0-0.8,0.4-0.8,0.8s0.4,0.8,0.8,0.8h2.6c0.5,0,0.8-0.4,0.8-0.8S329.4,276.4,329,276.4z"/>
	<path class="st1" d="M329,279.2h-2.6c-0.5,0-0.8,0.4-0.8,0.8s0.4,0.8,0.8,0.8h2.6c0.5,0,0.8-0.4,0.8-0.8S329.4,279.2,329,279.2z"/>
	<path class="st1" d="M329,281.9h-2.6c-0.5,0-0.8,0.4-0.8,0.8s0.4,0.8,0.8,0.8h2.6c0.5,0,0.8-0.4,0.8-0.8S329.4,281.9,329,281.9z"/>
	<path class="st1" d="M329,284.6h-2.6c-0.5,0-0.8,0.4-0.8,0.8c0,0,0,0,0,0h4.3c0,0,0,0,0,0C329.8,285,329.4,284.6,329,284.6z"/>
	<path class="st1" d="M359.3,245.2h-0.8v40.3h1.7v-41.1C360.1,244.9,359.8,245.2,359.3,245.2z"/>
	<path class="st1" d="M360.1,244.4c0-0.5-0.4-0.8-0.8-0.8s-0.8,0.4-0.8,0.8v0.8h0.8C359.8,245.2,360.1,244.9,360.1,244.4z"/>
	<path class="st1" d="M368,243.6h-3.2c-0.5,0-0.8,0.4-0.8,0.8s0.4,0.8,0.8,0.8h3.2c0.5,0,0.8-0.4,0.8-0.8S368.4,243.6,368,243.6z"/>
	<path class="st1" d="M368,246.5h-3.2c-0.5,0-0.8,0.4-0.8,0.8s0.4,0.8,0.8,0.8h3.2c0.5,0,0.8-0.4,0.8-0.8S368.4,246.5,368,246.5z"/>
	<path class="st1" d="M368,249.4h-3.2c-0.5,0-0.8,0.4-0.8,0.8s0.4,0.8,0.8,0.8h3.2c0.5,0,0.8-0.4,0.8-0.8S368.4,249.4,368,249.4z"/>
	<path class="st1" d="M368,252.3h-3.2c-0.5,0-0.8,0.4-0.8,0.8s0.4,0.8,0.8,0.8h3.2c0.5,0,0.8-0.4,0.8-0.8S368.4,252.3,368,252.3z"/>
	<path class="st1" d="M368,255.2h-3.2c-0.5,0-0.8,0.4-0.8,0.8c0,0.5,0.4,0.8,0.8,0.8h3.2c0.5,0,0.8-0.4,0.8-0.8
		C368.8,255.5,368.4,255.2,368,255.2z"/>
	<path class="st1" d="M368,258.1h-3.2c-0.5,0-0.8,0.4-0.8,0.8s0.4,0.8,0.8,0.8h3.2c0.5,0,0.8-0.4,0.8-0.8S368.4,258.1,368,258.1z"/>
	<path class="st1" d="M368,261h-3.2c-0.5,0-0.8,0.4-0.8,0.8s0.4,0.8,0.8,0.8h3.2c0.5,0,0.8-0.4,0.8-0.8S368.4,261,368,261z"/>
	<path class="st1" d="M368,263.8h-3.2c-0.5,0-0.8,0.4-0.8,0.8s0.4,0.8,0.8,0.8h3.2c0.5,0,0.8-0.4,0.8-0.8S368.4,263.8,368,263.8z"/>
	<path class="st1" d="M368,266.7h-3.2c-0.5,0-0.8,0.4-0.8,0.8s0.4,0.8,0.8,0.8h3.2c0.5,0,0.8-0.4,0.8-0.8S368.4,266.7,368,266.7z"/>
	<path class="st1" d="M368,269.6h-3.2c-0.5,0-0.8,0.4-0.8,0.8s0.4,0.8,0.8,0.8h3.2c0.5,0,0.8-0.4,0.8-0.8S368.4,269.6,368,269.6z"/>
	<path class="st1" d="M368,272.5h-3.2c-0.5,0-0.8,0.4-0.8,0.8s0.4,0.8,0.8,0.8h3.2c0.5,0,0.8-0.4,0.8-0.8S368.4,272.5,368,272.5z"/>
	<path class="st1" d="M368,275.4h-3.2c-0.5,0-0.8,0.4-0.8,0.8s0.4,0.8,0.8,0.8h3.2c0.5,0,0.8-0.4,0.8-0.8S368.4,275.4,368,275.4z"/>
	<path class="st1" d="M368,278.3h-3.2c-0.5,0-0.8,0.4-0.8,0.8c0,0.5,0.4,0.8,0.8,0.8h3.2c0.5,0,0.8-0.4,0.8-0.8
		C368.8,278.7,368.4,278.3,368,278.3z"/>
	<path class="st1" d="M368,281.2h-3.2c-0.5,0-0.8,0.4-0.8,0.8s0.4,0.8,0.8,0.8h3.2c0.5,0,0.8-0.4,0.8-0.8S368.4,281.2,368,281.2z"/>
	<path class="st1" d="M368,284.1h-3.2c-0.5,0-0.8,0.4-0.8,0.8c0,0.2,0.1,0.4,0.2,0.6h4.4c0.1-0.1,0.2-0.3,0.2-0.6
		C368.8,284.5,368.4,284.1,368,284.1z"/>
	<path class="st1" d="M349.8,244.4c0,0.5,0.4,0.8,0.8,0.8h3.2c0.5,0,0.8-0.4,0.8-0.8s-0.4-0.8-0.8-0.8h-3.2
		C350.2,243.6,349.8,243.9,349.8,244.4z"/>
	<path class="st1" d="M350.6,248.1h3.2c0.5,0,0.8-0.4,0.8-0.8s-0.4-0.8-0.8-0.8h-3.2c-0.5,0-0.8,0.4-0.8,0.8
		S350.2,248.1,350.6,248.1z"/>
	<path class="st1" d="M353.8,249.4h-3.2c-0.5,0-0.8,0.4-0.8,0.8s0.4,0.8,0.8,0.8h3.2c0.5,0,0.8-0.4,0.8-0.8S354.3,249.4,353.8,249.4
		z"/>
	<path class="st1" d="M353.8,252.3h-3.2c-0.5,0-0.8,0.4-0.8,0.8s0.4,0.8,0.8,0.8h3.2c0.5,0,0.8-0.4,0.8-0.8S354.3,252.3,353.8,252.3
		z"/>
	<path class="st1" d="M353.8,255.2h-3.2c-0.5,0-0.8,0.4-0.8,0.8c0,0.5,0.4,0.8,0.8,0.8h3.2c0.5,0,0.8-0.4,0.8-0.8
		C354.7,255.5,354.3,255.2,353.8,255.2z"/>
	<path class="st1" d="M353.8,258.1h-3.2c-0.5,0-0.8,0.4-0.8,0.8s0.4,0.8,0.8,0.8h3.2c0.5,0,0.8-0.4,0.8-0.8S354.3,258.1,353.8,258.1
		z"/>
	<path class="st1" d="M353.8,261h-3.2c-0.5,0-0.8,0.4-0.8,0.8s0.4,0.8,0.8,0.8h3.2c0.5,0,0.8-0.4,0.8-0.8S354.3,261,353.8,261z"/>
	<path class="st1" d="M353.8,263.8h-3.2c-0.5,0-0.8,0.4-0.8,0.8s0.4,0.8,0.8,0.8h3.2c0.5,0,0.8-0.4,0.8-0.8S354.3,263.8,353.8,263.8
		z"/>
	<path class="st1" d="M353.8,266.7h-3.2c-0.5,0-0.8,0.4-0.8,0.8s0.4,0.8,0.8,0.8h3.2c0.5,0,0.8-0.4,0.8-0.8S354.3,266.7,353.8,266.7
		z"/>
	<path class="st1" d="M353.8,269.6h-3.2c-0.5,0-0.8,0.4-0.8,0.8s0.4,0.8,0.8,0.8h3.2c0.5,0,0.8-0.4,0.8-0.8S354.3,269.6,353.8,269.6
		z"/>
	<path class="st1" d="M353.8,272.5h-3.2c-0.5,0-0.8,0.4-0.8,0.8s0.4,0.8,0.8,0.8h3.2c0.5,0,0.8-0.4,0.8-0.8S354.3,272.5,353.8,272.5
		z"/>
	<path class="st1" d="M353.8,275.4h-3.2c-0.5,0-0.8,0.4-0.8,0.8s0.4,0.8,0.8,0.8h3.2c0.5,0,0.8-0.4,0.8-0.8S354.3,275.4,353.8,275.4
		z"/>
	<path class="st1" d="M353.8,278.3h-3.2c-0.5,0-0.8,0.4-0.8,0.8c0,0.5,0.4,0.8,0.8,0.8h3.2c0.5,0,0.8-0.4,0.8-0.8
		C354.7,278.7,354.3,278.3,353.8,278.3z"/>
	<path class="st1" d="M353.8,281.2h-3.2c-0.5,0-0.8,0.4-0.8,0.8s0.4,0.8,0.8,0.8h3.2c0.5,0,0.8-0.4,0.8-0.8S354.3,281.2,353.8,281.2
		z"/>
	<path class="st1" d="M353.8,284.1h-3.2c-0.5,0-0.8,0.4-0.8,0.8c0,0.2,0.1,0.4,0.2,0.6h4.4c0.1-0.1,0.2-0.3,0.2-0.6
		C354.7,284.5,354.3,284.1,353.8,284.1z"/>
	<path class="st1" d="M371.2,244.4c0,0.5,0.4,0.8,0.8,0.8h2.6v-1.7H372C371.5,243.6,371.2,243.9,371.2,244.4z"/>
	<path class="st1" d="M375.2,245.2c0.5,0,0.8-0.4,0.8-0.8s-0.4-0.8-0.8-0.8h-0.6v1.7H375.2z"/>
	<path class="st1" d="M371.2,247.3c0,0.5,0.4,0.8,0.8,0.8h2.6v-1.7H372C371.5,246.5,371.2,246.8,371.2,247.3z"/>
	<path class="st1" d="M375.2,248.1c0.5,0,0.8-0.4,0.8-0.8s-0.4-0.8-0.8-0.8h-0.6v1.7H375.2z"/>
	<path class="st1" d="M371.2,250.2c0,0.5,0.4,0.8,0.8,0.8h2.6v-1.4v-0.2H372C371.5,249.4,371.2,249.7,371.2,250.2z"/>
	<path class="st1" d="M374.6,249.4L374.6,249.4l0,0.2C374.6,249.5,374.6,249.4,374.6,249.4z"/>
	<path class="st1" d="M374.6,249.6v1.4h0.6c0.4,0,0.7-0.3,0.8-0.6h-0.6C375,250.4,374.6,250.1,374.6,249.6z"/>
	<path class="st1" d="M375.4,250.4h0.6c0-0.1,0-0.1,0-0.2c0-0.5-0.4-0.8-0.8-0.8h-0.6c0,0.1,0,0.1,0,0.2
		C374.6,250.1,375,250.4,375.4,250.4z"/>
	<path class="st1" d="M371.2,253.1c0,0.5,0.4,0.8,0.8,0.8h2.6v-1.7H372C371.5,252.3,371.2,252.6,371.2,253.1z"/>
	<path class="st1" d="M375.2,253.9c0.5,0,0.8-0.4,0.8-0.8s-0.4-0.8-0.8-0.8h-0.6v1.7H375.2z"/>
	<path class="st1" d="M371.2,256c0,0.5,0.4,0.8,0.8,0.8h2.6v-1.7H372C371.5,255.2,371.2,255.5,371.2,256z"/>
	<path class="st1" d="M375.2,256.8c0.5,0,0.8-0.4,0.8-0.8c0-0.5-0.4-0.8-0.8-0.8h-0.6v1.7H375.2z"/>
	<path class="st1" d="M371.2,258.9c0,0.5,0.4,0.8,0.8,0.8h2.6v-1.7H372C371.5,258.1,371.2,258.4,371.2,258.9z"/>
	<path class="st1" d="M375.2,259.7c0.5,0,0.8-0.4,0.8-0.8s-0.4-0.8-0.8-0.8h-0.6v1.7H375.2z"/>
	<path class="st1" d="M371.2,261.8c0,0.5,0.4,0.8,0.8,0.8h2.6V261H372C371.5,261,371.2,261.3,371.2,261.8z"/>
	<path class="st1" d="M375.2,262.6c0.5,0,0.8-0.4,0.8-0.8s-0.4-0.8-0.8-0.8h-0.6v1.7H375.2z"/>
	<path class="st1" d="M371.2,264.7c0,0.5,0.4,0.8,0.8,0.8h2.6v-1.7H372C371.5,263.8,371.2,264.2,371.2,264.7z"/>
	<path class="st1" d="M375.2,265.5c0.5,0,0.8-0.4,0.8-0.8s-0.4-0.8-0.8-0.8h-0.6v1.7H375.2z"/>
	<path class="st1" d="M371.2,267.6c0,0.5,0.4,0.8,0.8,0.8h2.6v-1.7H372C371.5,266.7,371.2,267.1,371.2,267.6z"/>
	<path class="st1" d="M375.2,268.4c0.5,0,0.8-0.4,0.8-0.8s-0.4-0.8-0.8-0.8h-0.6v1.7H375.2z"/>
	<path class="st1" d="M371.2,270.5c0,0.5,0.4,0.8,0.8,0.8h2.6v-1.7H372C371.5,269.6,371.2,270,371.2,270.5z"/>
	<path class="st1" d="M375.2,271.3c0.5,0,0.8-0.4,0.8-0.8s-0.4-0.8-0.8-0.8h-0.6v1.7H375.2z"/>
	<path class="st1" d="M371.2,273.4c0,0.5,0.4,0.8,0.8,0.8h2.6v-1.7H372C371.5,272.5,371.2,272.9,371.2,273.4z"/>
	<path class="st1" d="M375.2,274.2c0.5,0,0.8-0.4,0.8-0.8s-0.4-0.8-0.8-0.8h-0.6v1.7H375.2z"/>
	<path class="st1" d="M371.2,276.3c0,0.5,0.4,0.8,0.8,0.8h2.6v-1.7H372C371.5,275.4,371.2,275.8,371.2,276.3z"/>
	<path class="st1" d="M375.2,277.1c0.5,0,0.8-0.4,0.8-0.8s-0.4-0.8-0.8-0.8h-0.6v1.7H375.2z"/>
	<path class="st1" d="M371.2,279.2c0,0.5,0.4,0.8,0.8,0.8h2.6v-1.7H372C371.5,278.3,371.2,278.7,371.2,279.2z"/>
	<path class="st1" d="M375.2,280c0.5,0,0.8-0.4,0.8-0.8c0-0.5-0.4-0.8-0.8-0.8h-0.6v1.7H375.2z"/>
	<path class="st1" d="M371.2,282.1c0,0.5,0.4,0.8,0.8,0.8h2.6v-1.7H372C371.5,281.2,371.2,281.6,371.2,282.1z"/>
	<path class="st1" d="M375.2,282.9c0.5,0,0.8-0.4,0.8-0.8s-0.4-0.8-0.8-0.8h-0.6v1.7H375.2z"/>
	<path class="st1" d="M374.6,284.1H372c-0.5,0-0.8,0.4-0.8,0.8c0,0.2,0.1,0.4,0.2,0.6h3.2V284.1z"/>
	<path class="st1" d="M375.2,284.1h-0.6v1.4h1.2c0.1-0.1,0.2-0.3,0.2-0.6C376,284.5,375.7,284.1,375.2,284.1z"/>
	<path class="st1" d="M386.2,250.4h-0.8v35.1h1.7v-35.9C387,250.1,386.6,250.4,386.2,250.4z"/>
	<path class="st1" d="M386.2,248.8c-0.5,0-0.8,0.4-0.8,0.8v0.8h0.8c0.5,0,0.8-0.4,0.8-0.8S386.6,248.8,386.2,248.8z"/>
	<path class="st1" d="M379,253.5c-0.5,0-0.8,0.4-0.8,0.8v31.2h1.7v-31.2C379.8,253.9,379.5,253.5,379,253.5z"/>
	<path class="st1" d="M382.6,253.5c-0.5,0-0.8,0.4-0.8,0.8v31.2h1.7v-31.2C383.4,253.9,383.1,253.5,382.6,253.5z"/>
	<rect x="399" y="247.1" class="st1" width="1.7" height="38.4"/>
	<path class="st1" d="M399.8,245.4c-0.5,0-0.8,0.4-0.8,0.8v0.8h1.7v-0.8C400.6,245.8,400.3,245.4,399.8,245.4z"/>
	<path class="st1" d="M390.3,250.5C390.3,250.5,390.3,250.5,390.3,250.5c-0.5,0-0.9,0.4-0.9,0.8c0,0.4,0.4,0.8,0.8,0.8
		c0,0,0.1,0,0.1,0c0.4,0,0.8-0.4,0.8-0.8C391.1,250.9,390.8,250.5,390.3,250.5z"/>
	<path class="st1" d="M395.8,252.1C395.8,252.1,395.8,252.1,395.8,252.1c0.5,0,0.9-0.4,0.9-0.8c0-0.4-0.4-0.8-0.8-0.8
		c0,0-0.1,0-0.1,0c-0.4,0-0.8,0.4-0.8,0.8C394.9,251.7,395.3,252.1,395.8,252.1z"/>
	<path class="st1" d="M390.3,253.5C390.3,253.5,390.3,253.5,390.3,253.5c-0.5,0-0.9,0.4-0.9,0.8c0,0.4,0.4,0.8,0.8,0.8
		c0,0,0.1,0,0.1,0c0.4,0,0.8-0.4,0.8-0.8C391.1,253.9,390.8,253.5,390.3,253.5z"/>
	<path class="st1" d="M395.8,255.2C395.8,255.2,395.8,255.2,395.8,255.2c0.5,0,0.9-0.4,0.9-0.8c0-0.4-0.4-0.8-0.8-0.8
		c0,0-0.1,0-0.1,0c-0.4,0-0.8,0.4-0.8,0.8C394.9,254.8,395.3,255.2,395.8,255.2z"/>
	<path class="st1" d="M390.3,256.5C390.3,256.5,390.3,256.5,390.3,256.5c-0.5,0-0.9,0.4-0.9,0.8c0,0.4,0.4,0.8,0.8,0.8
		c0,0,0.1,0,0.1,0c0.4,0,0.8-0.4,0.8-0.8C391.1,256.9,390.8,256.5,390.3,256.5z"/>
	<path class="st1" d="M395.8,258.2C395.8,258.2,395.8,258.2,395.8,258.2c0.5,0,0.9-0.4,0.9-0.8c0-0.4-0.4-0.8-0.8-0.8
		c0,0-0.1,0-0.1,0c-0.4,0-0.8,0.4-0.8,0.8C394.9,257.8,395.3,258.2,395.8,258.2z"/>
	<path class="st1" d="M390.3,259.6C390.3,259.6,390.3,259.6,390.3,259.6c-0.5,0-0.9,0.4-0.9,0.8c0,0.4,0.4,0.8,0.8,0.8
		c0,0,0.1,0,0.1,0c0.4,0,0.8-0.4,0.8-0.8C391.1,260,390.8,259.6,390.3,259.6z"/>
	<path class="st1" d="M395.8,261.2C395.8,261.2,395.8,261.2,395.8,261.2c0.5,0,0.9-0.4,0.9-0.8c0-0.4-0.4-0.8-0.8-0.8
		c0,0-0.1,0-0.1,0c-0.4,0-0.8,0.4-0.8,0.8C394.9,260.9,395.3,261.2,395.8,261.2z"/>
	<path class="st1" d="M390.3,262.6C390.3,262.6,390.3,262.6,390.3,262.6c-0.5,0-0.9,0.4-0.9,0.8c0,0.4,0.4,0.8,0.8,0.8
		c0,0,0.1,0,0.1,0c0.4,0,0.8-0.4,0.8-0.8C391.1,263,390.8,262.6,390.3,262.6z"/>
	<path class="st1" d="M395.8,264.3C395.8,264.3,395.8,264.3,395.8,264.3c0.5,0,0.9-0.4,0.9-0.8c0-0.4-0.4-0.8-0.8-0.8
		c0,0-0.1,0-0.1,0c-0.4,0-0.8,0.4-0.8,0.8C394.9,263.9,395.3,264.3,395.8,264.3z"/>
	<path class="st1" d="M390.3,265.6C390.3,265.6,390.3,265.6,390.3,265.6c-0.5,0-0.9,0.4-0.9,0.8c0,0.4,0.4,0.8,0.8,0.8
		c0,0,0.1,0,0.1,0c0.4,0,0.8-0.4,0.8-0.8C391.1,266,390.8,265.6,390.3,265.6z"/>
	<path class="st1" d="M395.8,267.3C395.8,267.3,395.8,267.3,395.8,267.3c0.5,0,0.9-0.4,0.9-0.8c0-0.4-0.4-0.8-0.8-0.8
		c0,0-0.1,0-0.1,0c-0.4,0-0.8,0.4-0.8,0.8C394.9,266.9,395.3,267.3,395.8,267.3z"/>
	<path class="st1" d="M390.3,268.7C390.3,268.7,390.3,268.7,390.3,268.7c-0.5,0-0.9,0.4-0.9,0.8c0,0.4,0.4,0.8,0.8,0.8
		c0,0,0.1,0,0.1,0c0.4,0,0.8-0.4,0.8-0.8C391.1,269.1,390.8,268.7,390.3,268.7z"/>
	<path class="st1" d="M395.8,270.3C395.8,270.3,395.8,270.3,395.8,270.3c0.5,0,0.9-0.4,0.9-0.8c0-0.4-0.4-0.8-0.8-0.8
		c0,0-0.1,0-0.1,0c-0.4,0-0.8,0.4-0.8,0.8C394.9,270,395.3,270.3,395.8,270.3z"/>
	<path class="st1" d="M390.3,271.7C390.3,271.7,390.3,271.7,390.3,271.7c-0.5,0-0.9,0.4-0.9,0.8c0,0.4,0.4,0.8,0.8,0.8
		c0,0,0.1,0,0.1,0c0.4,0,0.8-0.4,0.8-0.8C391.1,272.1,390.8,271.7,390.3,271.7z"/>
	<path class="st1" d="M395.8,273.4C395.8,273.4,395.8,273.4,395.8,273.4c0.5,0,0.9-0.4,0.9-0.8c0-0.4-0.4-0.8-0.8-0.8
		c0,0-0.1,0-0.1,0c-0.4,0-0.8,0.4-0.8,0.8C394.9,273,395.3,273.4,395.8,273.4z"/>
	<path class="st1" d="M390.3,274.7C390.3,274.7,390.3,274.7,390.3,274.7c-0.5,0-0.9,0.4-0.9,0.8c0,0.4,0.4,0.8,0.8,0.8
		c0,0,0.1,0,0.1,0c0.4,0,0.8-0.4,0.8-0.8C391.1,275.1,390.8,274.7,390.3,274.7z"/>
	<path class="st1" d="M395.8,276.4C395.8,276.4,395.8,276.4,395.8,276.4c0.5,0,0.9-0.4,0.9-0.8c0-0.4-0.4-0.8-0.8-0.8
		c0,0-0.1,0-0.1,0c-0.4,0-0.8,0.4-0.8,0.8C394.9,276,395.3,276.4,395.8,276.4z"/>
	<path class="st1" d="M390.3,277.8C390.3,277.8,390.3,277.8,390.3,277.8c-0.5,0-0.9,0.4-0.9,0.8c0,0.4,0.4,0.8,0.8,0.8
		c0,0,0.1,0,0.1,0c0.4,0,0.8-0.4,0.8-0.8C391.1,278.2,390.8,277.8,390.3,277.8z"/>
	<path class="st1" d="M395.8,279.4C395.8,279.4,395.8,279.4,395.8,279.4c0.5,0,0.9-0.4,0.9-0.8c0-0.4-0.4-0.8-0.8-0.8
		c0,0-0.1,0-0.1,0c-0.4,0-0.8,0.4-0.8,0.8C394.9,279.1,395.3,279.4,395.8,279.4z"/>
	<path class="st1" d="M390.3,280.8C390.3,280.8,390.3,280.8,390.3,280.8c-0.5,0-0.9,0.4-0.9,0.8c0,0.4,0.4,0.8,0.8,0.8
		c0,0,0.1,0,0.1,0c0.4,0,0.8-0.4,0.8-0.8C391.1,281.2,390.8,280.8,390.3,280.8z"/>
	<path class="st1" d="M395.8,282.5C395.8,282.5,395.8,282.5,395.8,282.5c0.5,0,0.9-0.4,0.9-0.8c0-0.4-0.4-0.8-0.8-0.8
		c0,0-0.1,0-0.1,0c-0.4,0-0.8,0.4-0.8,0.8C394.9,282.1,395.3,282.5,395.8,282.5z"/>
	<path class="st1" d="M391.2,284.7c0-0.4-0.4-0.8-0.8-0.8c0,0-0.1,0-0.1,0c-0.4,0-0.8,0.4-0.8,0.8c0,0.4,0.4,0.8,0.8,0.8
		c0,0,0.1,0,0.1,0C390.8,285.5,391.2,285.1,391.2,284.7z"/>
	<path class="st1" d="M396.7,284.7c0-0.4-0.4-0.8-0.8-0.8c0,0-0.1,0-0.1,0c-0.4,0-0.8,0.4-0.8,0.8c0,0.4,0.4,0.8,0.8,0.8
		c0,0,0.1,0,0.1,0C396.3,285.5,396.7,285.1,396.7,284.7z"/>
	<path class="st1" d="M402.4,250.5C402.3,250.5,402.3,250.5,402.4,250.5c-0.5,0-0.9,0.4-0.9,0.8c0,0.4,0.4,0.8,0.8,0.8
		c0,0,0,0,0.1,0c0.4,0,0.8-0.4,0.8-0.8C403.2,250.9,402.8,250.5,402.4,250.5z"/>
	<path class="st1" d="M406.4,250.5C406.4,250.5,406.4,250.5,406.4,250.5c-0.5,0-0.9,0.4-0.9,0.8c0,0.4,0.4,0.8,0.8,0.8
		c0,0,0,0,0.1,0c0.4,0,0.8-0.4,0.8-0.8C407.2,250.9,406.9,250.5,406.4,250.5z"/>
	<path class="st1" d="M402.4,253.5C402.3,253.5,402.3,253.5,402.4,253.5c-0.5,0-0.9,0.4-0.9,0.8c0,0.4,0.4,0.8,0.8,0.8
		c0,0,0,0,0.1,0c0.4,0,0.8-0.4,0.8-0.8C403.2,253.9,402.8,253.5,402.4,253.5z"/>
	<path class="st1" d="M406.4,253.5C406.4,253.5,406.4,253.5,406.4,253.5c-0.5,0-0.9,0.4-0.9,0.8c0,0.4,0.4,0.8,0.8,0.8
		c0,0,0,0,0.1,0c0.4,0,0.8-0.4,0.8-0.8C407.2,253.9,406.9,253.5,406.4,253.5z"/>
	<path class="st1" d="M402.4,256.5C402.3,256.5,402.3,256.5,402.4,256.5c-0.5,0-0.9,0.4-0.9,0.8c0,0.4,0.4,0.8,0.8,0.8
		c0,0,0,0,0.1,0c0.4,0,0.8-0.4,0.8-0.8C403.2,256.9,402.8,256.5,402.4,256.5z"/>
	<path class="st1" d="M406.4,256.5C406.4,256.5,406.4,256.5,406.4,256.5c-0.5,0-0.9,0.4-0.9,0.8c0,0.4,0.4,0.8,0.8,0.8
		c0,0,0,0,0.1,0c0.4,0,0.8-0.4,0.8-0.8C407.2,256.9,406.9,256.5,406.4,256.5z"/>
	<path class="st1" d="M402.4,259.6C402.3,259.6,402.3,259.6,402.4,259.6c-0.5,0-0.9,0.4-0.9,0.8c0,0.4,0.4,0.8,0.8,0.8
		c0,0,0,0,0.1,0c0.4,0,0.8-0.4,0.8-0.8C403.2,260,402.8,259.6,402.4,259.6z"/>
	<path class="st1" d="M406.4,259.6C406.4,259.6,406.4,259.6,406.4,259.6c-0.5,0-0.9,0.4-0.9,0.8c0,0.4,0.4,0.8,0.8,0.8
		c0,0,0,0,0.1,0c0.4,0,0.8-0.4,0.8-0.8C407.2,260,406.9,259.6,406.4,259.6z"/>
	<path class="st1" d="M402.4,262.6C402.3,262.6,402.3,262.6,402.4,262.6c-0.5,0-0.9,0.4-0.9,0.8c0,0.4,0.4,0.8,0.8,0.8
		c0,0,0,0,0.1,0c0.4,0,0.8-0.4,0.8-0.8C403.2,263,402.8,262.6,402.4,262.6z"/>
	<path class="st1" d="M406.4,262.6C406.4,262.6,406.4,262.6,406.4,262.6c-0.5,0-0.9,0.4-0.9,0.8c0,0.4,0.4,0.8,0.8,0.8
		c0,0,0,0,0.1,0c0.4,0,0.8-0.4,0.8-0.8C407.2,263,406.9,262.6,406.4,262.6z"/>
	<path class="st1" d="M402.4,265.6C402.3,265.6,402.3,265.6,402.4,265.6c-0.5,0-0.9,0.4-0.9,0.8c0,0.4,0.4,0.8,0.8,0.8
		c0,0,0,0,0.1,0c0.4,0,0.8-0.4,0.8-0.8C403.2,266,402.8,265.6,402.4,265.6z"/>
	<path class="st1" d="M406.4,265.6C406.4,265.6,406.4,265.6,406.4,265.6c-0.5,0-0.9,0.4-0.9,0.8c0,0.4,0.4,0.8,0.8,0.8
		c0,0,0,0,0.1,0c0.4,0,0.8-0.4,0.8-0.8C407.2,266,406.9,265.6,406.4,265.6z"/>
	<path class="st1" d="M402.4,268.7C402.3,268.7,402.3,268.7,402.4,268.7c-0.5,0-0.9,0.4-0.9,0.8c0,0.4,0.4,0.8,0.8,0.8
		c0,0,0,0,0.1,0c0.4,0,0.8-0.4,0.8-0.8C403.2,269.1,402.8,268.7,402.4,268.7z"/>
	<path class="st1" d="M406.4,268.7C406.4,268.7,406.4,268.7,406.4,268.7c-0.5,0-0.9,0.4-0.9,0.8c0,0.4,0.4,0.8,0.8,0.8
		c0,0,0,0,0.1,0c0.4,0,0.8-0.4,0.8-0.8C407.2,269.1,406.9,268.7,406.4,268.7z"/>
	<path class="st1" d="M402.4,271.7C402.3,271.7,402.3,271.7,402.4,271.7c-0.5,0-0.9,0.4-0.9,0.8c0,0.4,0.4,0.8,0.8,0.8
		c0,0,0,0,0.1,0c0.4,0,0.8-0.4,0.8-0.8C403.2,272.1,402.8,271.7,402.4,271.7z"/>
	<path class="st1" d="M406.4,271.7C406.4,271.7,406.4,271.7,406.4,271.7c-0.5,0-0.9,0.4-0.9,0.8c0,0.4,0.4,0.8,0.8,0.8
		c0,0,0,0,0.1,0c0.4,0,0.8-0.4,0.8-0.8C407.2,272.1,406.9,271.7,406.4,271.7z"/>
	<path class="st1" d="M402.4,274.7C402.3,274.7,402.3,274.7,402.4,274.7c-0.5,0-0.9,0.4-0.9,0.8c0,0.4,0.4,0.8,0.8,0.8
		c0,0,0,0,0.1,0c0.4,0,0.8-0.4,0.8-0.8C403.2,275.1,402.8,274.7,402.4,274.7z"/>
	<path class="st1" d="M406.4,274.7C406.4,274.7,406.4,274.7,406.4,274.7c-0.5,0-0.9,0.4-0.9,0.8c0,0.4,0.4,0.8,0.8,0.8
		c0,0,0,0,0.1,0c0.4,0,0.8-0.4,0.8-0.8C407.2,275.1,406.9,274.7,406.4,274.7z"/>
	<path class="st1" d="M402.4,277.8C402.3,277.8,402.3,277.8,402.4,277.8c-0.5,0-0.9,0.4-0.9,0.8c0,0.4,0.4,0.8,0.8,0.8
		c0,0,0,0,0.1,0c0.4,0,0.8-0.4,0.8-0.8C403.2,278.2,402.8,277.8,402.4,277.8z"/>
	<path class="st1" d="M406.4,277.8C406.4,277.8,406.4,277.8,406.4,277.8c-0.5,0-0.9,0.4-0.9,0.8c0,0.4,0.4,0.8,0.8,0.8
		c0,0,0,0,0.1,0c0.4,0,0.8-0.4,0.8-0.8C407.2,278.2,406.9,277.8,406.4,277.8z"/>
	<path class="st1" d="M402.4,280.8C402.3,280.8,402.3,280.8,402.4,280.8c-0.5,0-0.9,0.4-0.9,0.8c0,0.4,0.4,0.8,0.8,0.8
		c0,0,0,0,0.1,0c0.4,0,0.8-0.4,0.8-0.8C403.2,281.2,402.8,280.8,402.4,280.8z"/>
	<path class="st1" d="M406.4,280.8C406.4,280.8,406.4,280.8,406.4,280.8c-0.5,0-0.9,0.4-0.9,0.8c0,0.4,0.4,0.8,0.8,0.8
		c0,0,0,0,0.1,0c0.4,0,0.8-0.4,0.8-0.8C407.2,281.2,406.9,280.8,406.4,280.8z"/>
	<path class="st1" d="M403.2,284.7c0-0.4-0.4-0.8-0.8-0.8c0,0,0,0-0.1,0c-0.4,0-0.8,0.4-0.8,0.8c0,0.4,0.4,0.8,0.8,0.8
		c0,0,0,0,0.1,0C402.8,285.5,403.2,285.1,403.2,284.7z"/>
	<path class="st1" d="M406.4,285.5c0.4,0,0.8-0.4,0.8-0.8c0-0.4-0.4-0.8-0.8-0.8c0,0,0,0-0.1,0c-0.4,0-0.8,0.4-0.8,0.8
		C405.5,285.1,405.9,285.5,406.4,285.5C406.4,285.5,406.4,285.5,406.4,285.5C406.4,285.5,406.4,285.5,406.4,285.5z"/>
	<path class="st1" d="M392.3,245.4v-3.2l-0.7,0.1c-0.2,0-0.5,0-0.7-0.2c-0.2-0.2-0.3-0.4-0.3-0.6v4H392.3z"/>
	<path class="st1" d="M391.6,242.3l0.7-0.1v-0.7c0-0.5-0.4-0.8-0.8-0.8s-0.8,0.4-0.8,0.8c0,0.2,0.1,0.5,0.3,0.6
		C391.1,242.2,391.3,242.3,391.6,242.3z"/>
	<path class="st1" d="M391.4,247.1c0.5,0,0.8-0.4,0.8-0.8v-0.8h-1.7v0.8C390.6,246.7,391,247.1,391.4,247.1z"/>
	<path class="st1" d="M301.7,286.3v-0.8h-2v0.8c0,0.5-0.4,0.8-0.8,0.8h3.6C302.1,287.2,301.7,286.8,301.7,286.3z"/>
	<path class="st1" d="M72.3,286.3v-0.8h-7.2v0.8c0,0.5-0.4,0.8-0.8,0.8h8.8C72.7,287.2,72.3,286.8,72.3,286.3z"/>
	<path class="st1" d="M228.8,286.3v-0.8h-5.9v0.8c0,0.5-0.4,0.8-0.8,0.8h7.5C229.2,287.2,228.8,286.8,228.8,286.3z"/>
	<path class="st1" d="M221.3,286.3v-0.8h-1.6l0,0.8c0,0.5-0.3,0.8-0.8,0.9c0,0,0,0,0,0h3.2C221.6,287.2,221.3,286.8,221.3,286.3z"/>
	<path class="st1" d="M218,286.4l0-0.9h-9v0.8c0,0.5-0.4,0.8-0.8,0.8h10.7C218.4,287.2,218.1,286.8,218,286.4z"/>
	<path class="st1" d="M207.3,286.3v-0.8h-7l0,0.9c0,0.5-0.4,0.8-0.9,0.8c-0.5,0-0.8-0.4-0.8-0.9l0-0.8h-17v0.8
		c0,0.5-0.4,0.8-0.8,0.8h27.3C207.7,287.2,207.3,286.8,207.3,286.3z"/>
	<path class="st1" d="M238,286.3v-0.8h-7.5v0.8c0,0.5-0.4,0.8-0.8,0.8h9.2C238.4,287.2,238,286.8,238,286.3z"/>
	<path class="st1" d="M113.1,286.3v-0.8H74v0.8c0,0.5-0.4,0.8-0.8,0.8H114C113.5,287.2,113.1,286.8,113.1,286.3z"/>
	<path class="st1" d="M262.5,286.3v-0.8H261v0.8c0,0.5-0.4,0.8-0.8,0.8h3.2C262.9,287.2,262.5,286.8,262.5,286.3z"/>
	<path class="st1" d="M180.1,286.3v-0.8h-3.8v0.8c0,0.5-0.4,0.8-0.8,0.8h5.4C180.4,287.2,180.1,286.8,180.1,286.3z"/>
	<path class="st1" d="M259.3,286.3v-0.8h-14.7v0.8c0,0.5-0.4,0.8-0.8,0.8h16.4C259.7,287.2,259.3,286.8,259.3,286.3z"/>
	<path class="st1" d="M243,286.3v-0.8h-3.3v0.8c0,0.5-0.4,0.8-0.8,0.8h5C243.3,287.2,243,286.8,243,286.3z"/>
	<path class="st1" d="M265.8,286.3v-0.8h-1.6v0.8c0,0.5-0.4,0.8-0.8,0.8h3.2C266.1,287.2,265.8,286.8,265.8,286.3z"/>
	<path class="st1" d="M33.2,286.3v-0.8H30v0.8c0,0.5-0.4,0.8-0.8,0.8H34C33.5,287.2,33.2,286.8,33.2,286.3z"/>
	<path class="st1" d="M37.7,286.3v-0.8h-2.9v0.8c0,0.5-0.4,0.8-0.8,0.8h4.6C38.1,287.2,37.7,286.8,37.7,286.3z"/>
	<path class="st1" d="M53.2,286.3v-0.8h-2.8c-0.1,0-0.2,0.1-0.3,0.1c-0.1,0-0.2,0-0.3-0.1h-3.1c-0.1,0-0.2,0.1-0.3,0.1
		c-0.1,0-0.2,0-0.3-0.1h-3.1c-0.1,0-0.2,0.1-0.3,0.1c-0.1,0-0.2,0-0.3-0.1h-2.8v0.8c0,0.5-0.4,0.8-0.8,0.8H54
		C53.6,287.2,53.2,286.8,53.2,286.3z"/>
	<path class="st1" d="M63.5,286.3v-0.8h-2.4v0.8c0,0.5-0.4,0.8-0.8,0.8h4C63.9,287.2,63.5,286.8,63.5,286.3z"/>
	<path class="st1" d="M399.8,287.2h6.6c0.5,0,0.8-0.4,0.8-0.8s-0.4-0.8-0.8-0.8c0,0,0,0-0.1,0h-4c0,0,0,0-0.1,0h-1.7v0.8
		C400.6,286.8,400.3,287.2,399.8,287.2z"/>
	<path class="st1" d="M174.6,286.3v-0.8h-5.8v0.8c0,0.5-0.4,0.8-0.8,0.8h7.4C175,287.2,174.6,286.8,174.6,286.3z"/>
	<path class="st1" d="M128.2,286.3v-0.8h-5.9v0.8c0,0.5-0.4,0.8-0.8,0.8h7.5C128.5,287.2,128.2,286.8,128.2,286.3z"/>
	<path class="st1" d="M167.2,286.3v-0.8h-37.4v0.8c0,0.5-0.4,0.8-0.8,0.8h39C167.6,287.2,167.2,286.8,167.2,286.3z"/>
	<path class="st1" d="M28.3,286.3v-0.8h-2.1v0.8c0,0.5-0.4,0.8-0.8,0.8h3.7C28.7,287.2,28.3,286.8,28.3,286.3z"/>
	<path class="st1" d="M120.7,286.3v-0.8h-5.9v0.8c0,0.5-0.4,0.8-0.8,0.8h7.5C121,287.2,120.7,286.8,120.7,286.3z"/>
	<path class="st1" d="M24.6,286.3v-0.8H12.9v0.8c0,0.5-0.4,0.8-0.8,0.8h13.3C25,287.2,24.6,286.8,24.6,286.3z"/>
	<path class="st1" d="M374.6,286.3v-0.6H372c-0.2,0-0.5-0.1-0.6-0.3h-2.8c-0.2,0.2-0.4,0.3-0.6,0.3h-3.2c-0.2,0-0.5-0.1-0.6-0.3h-4
		v0.8c0,0.5-0.4,0.8-0.8,0.8h16.1C375,287.2,374.6,286.8,374.6,286.3z"/>
	<path class="st1" d="M315.7,286.3v-0.8H313v0.8c0,0.5-0.4,0.8-0.8,0.8h4.4C316.1,287.2,315.7,286.8,315.7,286.3z"/>
	<path class="st1" d="M342.2,286.3v-0.8h-2.1v0.8c0,0.5-0.4,0.8-0.8,0.8h3.7C342.6,287.2,342.2,286.8,342.2,286.3z"/>
	<path class="st1" d="M334.8,286.3v-0.8h-5c0,0.4-0.4,0.8-0.8,0.8h-2.6c-0.4,0-0.8-0.3-0.8-0.8h-1.4v0.8c0,0.5-0.4,0.8-0.8,0.8h12.3
		C335.1,287.2,334.8,286.8,334.8,286.3z"/>
	<path class="st1" d="M318.9,286.3v-0.8h-1.5v0.8c0,0.5-0.4,0.8-0.8,0.8h3.2C319.3,287.2,318.9,286.8,318.9,286.3z"/>
	<path class="st1" d="M322.5,286.3v-0.8h-1.9v0.8c0,0.5-0.4,0.8-0.8,0.8h3.6C322.9,287.2,322.5,286.8,322.5,286.3z"/>
	<path class="st1" d="M346,286.3v-0.8h-2.1v0.8c0,0.5-0.4,0.8-0.8,0.8h3.7C346.4,287.2,346,286.8,346,286.3z"/>
	<path class="st1" d="M268.9,286.3v-0.8h-1.5v0.8c0,0.5-0.4,0.8-0.8,0.8h3.1C269.3,287.2,268.9,286.8,268.9,286.3z"/>
	<path class="st1" d="M358.5,286.3v-0.8h-4c-0.2,0.2-0.4,0.3-0.6,0.3h-3.2c-0.2,0-0.5-0.1-0.6-0.3h-2.4v0.8c0,0.5-0.4,0.8-0.8,0.8
		h12.5C358.8,287.2,358.5,286.8,358.5,286.3z"/>
	<path class="st1" d="M385.4,286.3v-0.8h-1.9v0.8c0,0.5-0.4,0.8-0.8,0.8h3.6C385.7,287.2,385.4,286.8,385.4,286.3z"/>
	<path class="st1" d="M399,286.3v-0.8h-3.1c0,0-0.1,0-0.1,0h-5.4c0,0-0.1,0-0.1,0H387v0.8c0,0.5-0.4,0.8-0.8,0.8h13.6
		C399.3,287.2,399,286.8,399,286.3z"/>
	<path class="st1" d="M381.8,286.3v-0.8h-1.9v0.8c0,0.5-0.4,0.8-0.8,0.8h3.6C382.2,287.2,381.8,286.8,381.8,286.3z"/>
	<path class="st1" d="M378.2,286.3v-0.8h-1.9v0.8c0,0.5-0.4,0.8-0.8,0.8h3.6C378.6,287.2,378.2,286.8,378.2,286.3z"/>
	<path class="st1" d="M59.4,286.3v-0.8h-4.6v0.8c0,0.5-0.4,0.8-0.8,0.8h6.3C59.8,287.2,59.4,286.8,59.4,286.3z"/>
	<path class="st1" d="M338.5,286.3v-0.8h-2.1v0.8c0,0.5-0.4,0.8-0.8,0.8h3.7C338.9,287.2,338.5,286.8,338.5,286.3z"/>
	<path class="st1" d="M278.9,286.3v-0.8h-3.1v0.8c0,0.5-0.4,0.8-0.8,0.8h4.7C279.3,287.2,278.9,286.8,278.9,286.3z"/>
	<path class="st1" d="M307.2,286.3v-0.8h-3.8v0.8c0,0.5-0.4,0.8-0.8,0.8h5.4C307.5,287.2,307.2,286.8,307.2,286.3z"/>
	<path class="st1" d="M274.2,286.3v-0.8h-3.7v0.8c0,0.5-0.4,0.8-0.8,0.8h5.3C274.6,287.2,274.2,286.8,274.2,286.3z"/>
	<path class="st1" d="M289.1,286.3v-0.8h-8.5v0.8c0,0.5-0.4,0.8-0.8,0.8h10.2C289.5,287.2,289.1,286.8,289.1,286.3z"/>
	<path class="st1" d="M298.1,286.3v-0.8h-2v0.8c0,0.5-0.4,0.8-0.8,0.8h3.6C298.5,287.2,298.1,286.8,298.1,286.3z"/>
	<path class="st1" d="M311.4,286.3v-0.8h-2.5v0.8c0,0.5-0.4,0.8-0.8,0.8h4.2C311.7,287.2,311.4,286.8,311.4,286.3z"/>
	<path class="st1" d="M294.5,286.3v-0.8h-3.7v0.8c0,0.5-0.4,0.8-0.8,0.8h5.4C294.9,287.2,294.5,286.8,294.5,286.3z"/>
	<path class="st1" d="M198.6,286.3c0,0.5,0.3,0.8,0.8,0.9c0.5,0,0.8-0.3,0.9-0.8l0-0.9h-1.7L198.6,286.3z"/>
	<path class="st1" d="M219.7,286.3l0-0.8H218l0,0.9c0,0.4,0.4,0.8,0.8,0.8c0,0,0,0,0,0C219.4,287.1,219.7,286.8,219.7,286.3z"/>
	<path class="st1" d="M209,286.3v-0.8h-1.7v0.8c0,0.5,0.4,0.8,0.8,0.8S209,286.8,209,286.3z"/>
	<path class="st1" d="M65.1,286.3v-0.8h-1.7v0.8c0,0.5,0.4,0.8,0.8,0.8C64.8,287.2,65.1,286.8,65.1,286.3z"/>
	<path class="st1" d="M176.3,286.3v-0.8h-1.7v0.8c0,0.5,0.4,0.8,0.8,0.8S176.3,286.8,176.3,286.3z"/>
	<path class="st1" d="M74,286.3v-0.8h-1.7v0.8c0,0.5,0.4,0.8,0.8,0.8S74,286.8,74,286.3z"/>
	<path class="st1" d="M168.9,286.3v-0.8h-1.7v0.8c0,0.5,0.4,0.8,0.8,0.8S168.9,286.8,168.9,286.3z"/>
	<path class="st1" d="M114.8,286.3v-0.8h-1.7v0.8c0,0.5,0.4,0.8,0.8,0.8S114.8,286.8,114.8,286.3z"/>
	<path class="st1" d="M129.8,286.3v-0.8h-1.7v0.8c0,0.5,0.4,0.8,0.8,0.8S129.8,286.8,129.8,286.3z"/>
	<path class="st1" d="M122.3,286.3v-0.8h-1.7v0.8c0,0.5,0.4,0.8,0.8,0.8S122.3,286.8,122.3,286.3z"/>
	<path class="st1" d="M181.7,286.3v-0.8h-1.7v0.8c0,0.5,0.4,0.8,0.8,0.8S181.7,286.8,181.7,286.3z"/>
	<path class="st1" d="M12.9,286.3v-0.8h-0.8c-0.5,0-0.8,0.4-0.8,0.8s0.4,0.8,0.8,0.8C12.6,287.2,12.9,286.8,12.9,286.3z"/>
	<path class="st1" d="M34.8,286.3v-0.8h-1.7v0.8c0,0.5,0.4,0.8,0.8,0.8C34.4,287.2,34.8,286.8,34.8,286.3z"/>
	<path class="st1" d="M39.4,286.3v-0.8h-1.7v0.8c0,0.5,0.4,0.8,0.8,0.8S39.4,286.8,39.4,286.3z"/>
	<path class="st1" d="M61.1,286.3v-0.8h-1.7v0.8c0,0.5,0.4,0.8,0.8,0.8S61.1,286.8,61.1,286.3z"/>
	<path class="st1" d="M26.3,286.3v-0.8h-1.7v0.8c0,0.5,0.4,0.8,0.8,0.8S26.3,286.8,26.3,286.3z"/>
	<path class="st1" d="M30,286.3v-0.8h-1.7v0.8c0,0.5,0.4,0.8,0.8,0.8S30,286.8,30,286.3z"/>
	<path class="st1" d="M54.8,286.3v-0.8h-1.7v0.8c0,0.5,0.4,0.8,0.8,0.8S54.8,286.8,54.8,286.3z"/>
	<path class="st1" d="M42.5,285.6c0.1,0,0.2,0,0.3-0.1h-0.6C42.3,285.5,42.4,285.6,42.5,285.6z"/>
	<path class="st1" d="M46.3,285.6c0.1,0,0.2,0,0.3-0.1H46C46.1,285.5,46.2,285.6,46.3,285.6z"/>
	<path class="st1" d="M50.1,285.6c0.1,0,0.2,0,0.3-0.1h-0.6C49.8,285.5,49.9,285.6,50.1,285.6z"/>
	<path class="st1" d="M222.9,286.3v-0.8h-1.7v0.8c0,0.5,0.4,0.8,0.8,0.8S222.9,286.8,222.9,286.3z"/>
	<path class="st1" d="M230.5,286.3v-0.8h-1.7v0.8c0,0.5,0.4,0.8,0.8,0.8C230.1,287.2,230.5,286.8,230.5,286.3z"/>
	<path class="st1" d="M239.6,286.3v-0.8H238v0.8c0,0.5,0.4,0.8,0.8,0.8S239.6,286.8,239.6,286.3z"/>
	<path class="st1" d="M261,286.3v-0.8h-1.7v0.8c0,0.5,0.4,0.8,0.8,0.8S261,286.8,261,286.3z"/>
	<path class="st1" d="M275.9,286.3v-0.8h-1.7v0.8c0,0.5,0.4,0.8,0.8,0.8S275.9,286.8,275.9,286.3z"/>
	<path class="st1" d="M270.5,286.3v-0.8h-1.7v0.8c0,0.5,0.4,0.8,0.8,0.8S270.5,286.8,270.5,286.3z"/>
	<path class="st1" d="M267.4,286.3v-0.8h-1.7v0.8c0,0.5,0.4,0.8,0.8,0.8S267.4,286.8,267.4,286.3z"/>
	<path class="st1" d="M264.2,286.3v-0.8h-1.7v0.8c0,0.5,0.4,0.8,0.8,0.8S264.2,286.8,264.2,286.3z"/>
	<path class="st1" d="M244.6,286.3v-0.8H243v0.8c0,0.5,0.4,0.8,0.8,0.8S244.6,286.8,244.6,286.3z"/>
	<path class="st1" d="M280.6,286.3v-0.8h-1.7v0.8c0,0.5,0.4,0.8,0.8,0.8S280.6,286.8,280.6,286.3z"/>
	<path class="st1" d="M308.8,286.3v-0.8h-1.7v0.8c0,0.5,0.4,0.8,0.8,0.8S308.8,286.8,308.8,286.3z"/>
	<path class="st1" d="M290.8,286.3v-0.8h-1.7v0.8c0,0.5,0.4,0.8,0.8,0.8S290.8,286.8,290.8,286.3z"/>
	<path class="st1" d="M296.1,286.3v-0.8h-1.7v0.8c0,0.5,0.4,0.8,0.8,0.8S296.1,286.8,296.1,286.3z"/>
	<path class="st1" d="M299.8,286.3v-0.8h-1.7v0.8c0,0.5,0.4,0.8,0.8,0.8S299.8,286.8,299.8,286.3z"/>
	<path class="st1" d="M303.4,286.3v-0.8h-1.7v0.8c0,0.5,0.4,0.8,0.8,0.8S303.4,286.8,303.4,286.3z"/>
	<path class="st1" d="M313,286.3v-0.8h-1.7v0.8c0,0.5,0.4,0.8,0.8,0.8S313,286.8,313,286.3z"/>
	<path class="st1" d="M317.4,286.3v-0.8h-1.7v0.8c0,0.5,0.4,0.8,0.8,0.8S317.4,286.8,317.4,286.3z"/>
	<path class="st1" d="M320.5,286.3v-0.8h-1.7v0.8c0,0.5,0.4,0.8,0.8,0.8S320.5,286.8,320.5,286.3z"/>
	<path class="st1" d="M376.3,286.3v-0.8h-0.4c-0.2,0.2-0.4,0.3-0.6,0.3h-0.6v0.6c0,0.5,0.4,0.8,0.8,0.8S376.3,286.8,376.3,286.3z"/>
	<path class="st1" d="M324.1,286.3v-0.8h-1.7v0.8c0,0.5,0.4,0.8,0.8,0.8S324.1,286.8,324.1,286.3z"/>
	<path class="st1" d="M336.4,286.3v-0.8h-1.7v0.8c0,0.5,0.4,0.8,0.8,0.8S336.4,286.8,336.4,286.3z"/>
	<path class="st1" d="M340.2,286.3v-0.8h-1.7v0.8c0,0.5,0.4,0.8,0.8,0.8S340.2,286.8,340.2,286.3z"/>
	<path class="st1" d="M343.9,286.3v-0.8h-1.7v0.8c0,0.5,0.4,0.8,0.8,0.8S343.9,286.8,343.9,286.3z"/>
	<path class="st1" d="M347.6,286.3v-0.8H346v0.8c0,0.5,0.4,0.8,0.8,0.8S347.6,286.8,347.6,286.3z"/>
	<path class="st1" d="M326.3,286.3h2.6c0.4,0,0.8-0.3,0.8-0.8h-4.3C325.5,285.9,325.9,286.3,326.3,286.3z"/>
	<path class="st1" d="M360.1,286.3v-0.8h-1.7v0.8c0,0.5,0.4,0.8,0.8,0.8S360.1,286.8,360.1,286.3z"/>
	<path class="st1" d="M364.8,285.8h3.2c0.2,0,0.5-0.1,0.6-0.3h-4.4C364.3,285.7,364.5,285.8,364.8,285.8z"/>
	<path class="st1" d="M350.6,285.8h3.2c0.2,0,0.5-0.1,0.6-0.3H350C350.2,285.7,350.4,285.8,350.6,285.8z"/>
	<path class="st1" d="M371.4,285.5c0.2,0.2,0.4,0.3,0.6,0.3h2.6v-0.3H371.4z"/>
	<path class="st1" d="M374.6,285.8h0.6c0.2,0,0.5-0.1,0.6-0.3h-1.2V285.8z"/>
	<path class="st1" d="M387,286.3v-0.8h-1.7v0.8c0,0.5,0.4,0.8,0.8,0.8S387,286.8,387,286.3z"/>
	<path class="st1" d="M379.8,286.3v-0.8h-1.7v0.8c0,0.5,0.4,0.8,0.8,0.8S379.8,286.8,379.8,286.3z"/>
	<path class="st1" d="M383.4,286.3v-0.8h-1.7v0.8c0,0.5,0.4,0.8,0.8,0.8S383.4,286.8,383.4,286.3z"/>
	<path class="st1" d="M399,286.3c0,0.5,0.4,0.8,0.8,0.8s0.8-0.4,0.8-0.8v-0.8H399V286.3z"/>
	<path class="st1" d="M95.7,228.5c11,0,17.3-1.3,19.9-4.1c1.1-1.2,1.6-2.8,1.5-4.7c-0.1-1.4-0.6-2.4-1.6-3.2c-1.3-1-3-1.1-4.3-1.1
		c0.9-2.8,0.6-6.6-3-8.8c-3.3-1.9-6.7-0.8-8.3-0.1c-1.1-2.5-3.3-4.7-5.9-6c-2.1-1-5.4-1.9-9.5-0.4c-4.4,1.7-6.5,4.6-7.4,6.8
		c-0.9,2.2-1.1,4.7-0.5,6.8c-2,0.1-6.1,0.7-8,3.2c-1.1,1.4-1.3,3.3-0.6,5.4C69.9,228.5,77.4,228.5,95.7,228.5z M69.9,218.1
		c1.8-2.5,6.9-2.6,7.7-2.6c0.1,0,0.1,0,0.1,0l1.3,0l-0.5-1.2c-0.8-1.9-0.8-4.4,0.1-6.6c0.8-1.9,2.5-4.4,6.4-5.9
		c3.5-1.3,6.4-0.5,8.2,0.3c2.5,1.2,4.7,3.6,5.4,6l0.3,1l0.9-0.6c0,0,4-2.4,7.5-0.4c3.6,2.1,2.8,6.2,1.8,7.9l-0.9,1.6l1.8-0.4
		c0.8-0.2,3.1-0.4,4.4,0.6c0.6,0.4,0.9,1.1,0.9,2c0.1,1.5-0.2,2.6-1.1,3.4c-2.2,2.4-8.3,3.6-18.7,3.6c-16.9,0-24.6,0-26.2-4.9
		C69,220.4,69.1,219.1,69.9,218.1z"/>
	<path class="st1" d="M350.8,191.3c12.2,0,19.2-1.4,22-4.5c1.3-1.3,1.8-3,1.7-5.1c-0.1-1.5-0.7-2.6-1.7-3.4
		c-1.4-1.1-3.5-1.2-4.8-1.2c1.1-3,0.7-7.4-3.3-9.8c-3.6-2.2-7.5-0.8-9.2,0c-1.2-2.8-3.6-5.3-6.6-6.7c-2.3-1.1-6-2.1-10.5-0.4
		c-4.9,1.8-7.1,5.1-8.1,7.5c-1,2.5-1.2,5.3-0.5,7.6c-2.2,0.1-6.8,0.7-8.9,3.5c-1.2,1.6-1.4,3.6-0.7,6
		C322.2,191.3,330.6,191.3,350.8,191.3z M322,179.7c2.1-2.8,7.7-2.9,8.6-2.9c0.1,0,0.1,0,0.1,0l1.3,0l-0.5-1.2c-1-2.1-0.9-5,0.1-7.4
		c0.9-2.1,2.8-5,7.2-6.6c3.9-1.5,7.2-0.6,9.2,0.4c2.9,1.4,5.2,4,6.1,6.7l0.3,1l0.9-0.6c0,0,4.5-2.7,8.4-0.4c4,2.4,3.1,7,2.1,8.9
		l-0.9,1.6l1.8-0.4c0.9-0.2,3.5-0.4,5,0.7c0.7,0.5,1,1.2,1.1,2.2c0.1,1.7-0.3,2.9-1.2,3.9c-2.5,2.7-9.3,4-20.8,4
		c-18.8,0-27.4,0-29.2-5.5C321.1,182.3,321.2,180.8,322,179.7z"/>
	<path class="st1" d="M172.5,68.3c6,0,9.3-0.7,10.8-2.3c0.7-0.7,1-1.6,0.9-2.8c-0.1-0.8-0.4-1.5-1-2c-0.6-0.5-1.3-0.6-2-0.7
		c0.3-1.5,0-3.5-1.9-4.6c-1.7-1-3.4-0.6-4.4-0.2c-0.6-1.3-1.8-2.4-3.1-3c-1.2-0.6-3.1-1.1-5.3-0.2c-1.9,0.7-3.4,2.1-4.1,3.8
		c-0.5,1.1-0.6,2.3-0.4,3.4c-1.2,0.1-3.1,0.5-4.1,1.8c-0.4,0.6-0.9,1.6-0.4,3.2C158.6,68.3,162.6,68.3,172.5,68.3z M159.1,62.6
		c0.7-1,2.8-1.2,3.7-1.2c0,0,0.1,0,0.1,0l1.3,0l-0.5-1.2c-0.4-0.9-0.4-2.1,0.1-3.2c0.4-0.9,1.2-2.2,3.2-2.9c1.7-0.6,3.1-0.3,4,0.2
		c1.3,0.6,2.3,1.8,2.7,2.9l0.3,1l0.9-0.6c0,0,1.9-1.2,3.5-0.2c1.6,1,1.3,2.9,0.8,3.6l-0.9,1.6l1.8-0.4c0.4-0.1,1.5-0.1,2,0.3
		c0.1,0.1,0.3,0.3,0.3,0.7c0,0.7-0.1,1.1-0.5,1.5c-1.1,1.2-4.3,1.8-9.6,1.8c-8.7,0-12.7,0-13.4-2.3C158.8,63.6,158.8,63,159.1,62.6z
		"/>
</g>
</svg>
